<control>label_cc74=CutOff label_cc71=Resonance set_cc74=64 set_cc71=64 set_cc16=127 label_cc16=Timpani set_cc17=127 label_cc17=No Wave set_cc18=127 label_cc18=No Wave set_cc19=127 label_cc19=No Wave
<group>lovel=1 hivel=127 volume=12 amp_velcurve_0=0 amp_velcurve_1=1 amp_velcurve_127=1 pitch_oncc136=0 fil_type=lpf_2p cutoff=11025 cutoff_cc74=14400 cutoff_curvecc74=1 cutoff_cc133=0 cutoff_curvecc133=133 eg4_cutoff=-3523.4645669 fil2_type=lpf_4p cutoff2=22050 eg4_sustain=4 resonance_oncc71=40 resonance_curvecc71=1 resonance=0 resonance_oncc131=0 group_amplitude=100 volume_curvecc131=202 volume_oncc131=23.015873 pan_keytrack=0 pan_oncc136=0
<region>sample=../Sample/Wave41.wav lokey=0 hikey=0 pitch_keycenter=54 tune=36 loop_mode=loop_continuous loop_start=38205 loop_end=43072 pan=0 eg2_cutoff=6688 eg2_sustain=4 eg2_time1=0 eg2_time2=0 eg2_time3=0 eg2_time4=0 eg2_time5=0 eg2_level1=0 eg2_level2=1 eg2_level3=1 eg2_level4=1 eg2_level5=1 eg2_cutoff_curvecc131=202 eg2_cutoff_oncc131=9766.6031746 eg3_amplitude=100 eg3_sustain=4 eg3_time1=0 eg3_time2=0 eg3_time3=4.8229008 eg3_time4=33.839869 eg3_time5=69.9419445 eg3_level1=0 eg3_level2=1 eg3_level3=1 eg3_level4=0 eg3_level5=0 amplitude_cc16=100 ampeg_attack=0 ampeg_release=69.9419445 eg4_time1=0 eg4_time2=0 eg4_time3=4.8229008 eg4_time4=33.839869 eg4_time5=69.9419445 eg4_level1=1 eg4_level2=1 eg4_level3=1 eg4_level4=1 eg4_level5=1
<region>sample=../Sample/Wave41.wav lokey=1 hikey=1 pitch_keycenter=54 tune=36 loop_mode=loop_continuous loop_start=38205 loop_end=43072 pan=0 eg2_cutoff=6688 eg2_sustain=4 eg2_time1=0 eg2_time2=0 eg2_time3=0 eg2_time4=0 eg2_time5=0 eg2_level1=0 eg2_level2=1 eg2_level3=1 eg2_level4=1 eg2_level5=1 eg2_cutoff_curvecc131=202 eg2_cutoff_oncc131=9766.6031746 eg3_amplitude=100 eg3_sustain=4 eg3_time1=0 eg3_time2=0 eg3_time3=4.5522121 eg3_time4=31.9405831 eg3_time5=66.0164048 eg3_level1=0 eg3_level2=1 eg3_level3=1 eg3_level4=0 eg3_level5=0 amplitude_cc16=100 ampeg_attack=0 ampeg_release=66.0164048 eg4_time1=0 eg4_time2=0 eg4_time3=4.5522121 eg4_time4=31.9405831 eg4_time5=66.0164048 eg4_level1=1 eg4_level2=1 eg4_level3=1 eg4_level4=1 eg4_level5=1
<region>sample=../Sample/Wave41.wav lokey=2 hikey=2 pitch_keycenter=54 tune=36 loop_mode=loop_continuous loop_start=38205 loop_end=43072 pan=0 eg2_cutoff=6688 eg2_sustain=4 eg2_time1=0 eg2_time2=0 eg2_time3=0 eg2_time4=0 eg2_time5=0 eg2_level1=0 eg2_level2=1 eg2_level3=1 eg2_level4=1 eg2_level5=1 eg2_cutoff_curvecc131=202 eg2_cutoff_oncc131=9766.6031746 eg3_amplitude=100 eg3_sustain=4 eg3_time1=0 eg3_time2=0 eg3_time3=4.2967161 eg3_time4=30.1478959 eg3_time5=62.3111887 eg3_level1=0 eg3_level2=1 eg3_level3=1 eg3_level4=0 eg3_level5=0 amplitude_cc16=100 ampeg_attack=0 ampeg_release=62.3111887 eg4_time1=0 eg4_time2=0 eg4_time3=4.2967161 eg4_time4=30.1478959 eg4_time5=62.3111887 eg4_level1=1 eg4_level2=1 eg4_level3=1 eg4_level4=1 eg4_level5=1
<region>sample=../Sample/Wave41.wav lokey=3 hikey=3 pitch_keycenter=54 tune=36 loop_mode=loop_continuous loop_start=38205 loop_end=43072 pan=0 eg2_cutoff=6688 eg2_sustain=4 eg2_time1=0 eg2_time2=0 eg2_time3=0 eg2_time4=0 eg2_time5=0 eg2_level1=0 eg2_level2=1 eg2_level3=1 eg2_level4=1 eg2_level5=1 eg2_cutoff_curvecc131=202 eg2_cutoff_oncc131=9766.6031746 eg3_amplitude=100 eg3_sustain=4 eg3_time1=0 eg3_time2=0 eg3_time3=4.05556 eg3_time4=28.4558245 eg3_time5=58.8139304 eg3_level1=0 eg3_level2=1 eg3_level3=1 eg3_level4=0 eg3_level5=0 amplitude_cc16=100 ampeg_attack=0 ampeg_release=58.8139304 eg4_time1=0 eg4_time2=0 eg4_time3=4.05556 eg4_time4=28.4558245 eg4_time5=58.8139304 eg4_level1=1 eg4_level2=1 eg4_level3=1 eg4_level4=1 eg4_level5=1
<region>sample=../Sample/Wave41.wav lokey=4 hikey=4 pitch_keycenter=54 tune=36 loop_mode=loop_continuous loop_start=38205 loop_end=43072 pan=0 eg2_cutoff=6688 eg2_sustain=4 eg2_time1=0 eg2_time2=0 eg2_time3=0 eg2_time4=0 eg2_time5=0 eg2_level1=0 eg2_level2=1 eg2_level3=1 eg2_level4=1 eg2_level5=1 eg2_cutoff_curvecc131=202 eg2_cutoff_oncc131=9766.6031746 eg3_amplitude=100 eg3_sustain=4 eg3_time1=0 eg3_time2=0 eg3_time3=3.8279389 eg3_time4=26.8587218 eg3_time5=55.5129581 eg3_level1=0 eg3_level2=1 eg3_level3=1 eg3_level4=0 eg3_level5=0 amplitude_cc16=100 ampeg_attack=0 ampeg_release=55.5129581 eg4_time1=0 eg4_time2=0 eg4_time3=3.8279389 eg4_time4=26.8587218 eg4_time5=55.5129581 eg4_level1=1 eg4_level2=1 eg4_level3=1 eg4_level4=1 eg4_level5=1
<region>sample=../Sample/Wave41.wav lokey=5 hikey=5 pitch_keycenter=54 tune=36 loop_mode=loop_continuous loop_start=38205 loop_end=43072 pan=0 eg2_cutoff=6688 eg2_sustain=4 eg2_time1=0 eg2_time2=0 eg2_time3=0 eg2_time4=0 eg2_time5=0 eg2_level1=0 eg2_level2=1 eg2_level3=1 eg2_level4=1 eg2_level5=1 eg2_cutoff_curvecc131=202 eg2_cutoff_oncc131=9766.6031746 eg3_amplitude=100 eg3_sustain=4 eg3_time1=0 eg3_time2=0 eg3_time3=3.6130932 eg3_time4=25.3512576 eg3_time5=52.3972552 eg3_level1=0 eg3_level2=1 eg3_level3=1 eg3_level4=0 eg3_level5=0 amplitude_cc16=100 ampeg_attack=0 ampeg_release=52.3972552 eg4_time1=0 eg4_time2=0 eg4_time3=3.6130932 eg4_time4=25.3512576 eg4_time5=52.3972552 eg4_level1=1 eg4_level2=1 eg4_level3=1 eg4_level4=1 eg4_level5=1
<region>sample=../Sample/Wave41.wav lokey=6 hikey=6 pitch_keycenter=54 tune=36 loop_mode=loop_continuous loop_start=38205 loop_end=43072 pan=0 eg2_cutoff=6688 eg2_sustain=4 eg2_time1=0 eg2_time2=0 eg2_time3=0 eg2_time4=0 eg2_time5=0 eg2_level1=0 eg2_level2=1 eg2_level3=1 eg2_level4=1 eg2_level5=1 eg2_cutoff_curvecc131=202 eg2_cutoff_oncc131=9766.6031746 eg3_amplitude=100 eg3_sustain=4 eg3_time1=0 eg3_time2=0 eg3_time3=3.4103058 eg3_time4=23.9284008 eg3_time5=49.4564232 eg3_level1=0 eg3_level2=1 eg3_level3=1 eg3_level4=0 eg3_level5=0 amplitude_cc16=100 ampeg_attack=0 ampeg_release=49.4564232 eg4_time1=0 eg4_time2=0 eg4_time3=3.4103058 eg4_time4=23.9284008 eg4_time5=49.4564232 eg4_level1=1 eg4_level2=1 eg4_level3=1 eg4_level4=1 eg4_level5=1
<region>sample=../Sample/Wave41.wav lokey=7 hikey=7 pitch_keycenter=54 tune=36 loop_mode=loop_continuous loop_start=38205 loop_end=43072 pan=0 eg2_cutoff=6688 eg2_sustain=4 eg2_time1=0 eg2_time2=0 eg2_time3=0 eg2_time4=0 eg2_time5=0 eg2_level1=0 eg2_level2=1 eg2_level3=1 eg2_level4=1 eg2_level5=1 eg2_cutoff_curvecc131=202 eg2_cutoff_oncc131=9766.6031746 eg3_amplitude=100 eg3_sustain=4 eg3_time1=0 eg3_time2=0 eg3_time3=3.2189001 eg3_time4=22.5854029 eg3_time5=46.6806475 eg3_level1=0 eg3_level2=1 eg3_level3=1 eg3_level4=0 eg3_level5=0 amplitude_cc16=100 ampeg_attack=0 ampeg_release=46.6806475 eg4_time1=0 eg4_time2=0 eg4_time3=3.2189001 eg4_time4=22.5854029 eg4_time5=46.6806475 eg4_level1=1 eg4_level2=1 eg4_level3=1 eg4_level4=1 eg4_level5=1
<region>sample=../Sample/Wave41.wav lokey=8 hikey=8 pitch_keycenter=54 tune=36 loop_mode=loop_continuous loop_start=38205 loop_end=43072 pan=0 eg2_cutoff=6688 eg2_sustain=4 eg2_time1=0 eg2_time2=0 eg2_time3=0 eg2_time4=0 eg2_time5=0 eg2_level1=0 eg2_level2=1 eg2_level3=1 eg2_level4=1 eg2_level5=1 eg2_cutoff_curvecc131=202 eg2_cutoff_oncc131=9766.6031746 eg3_amplitude=100 eg3_sustain=4 eg3_time1=0 eg3_time2=0 eg3_time3=3.0382371 eg3_time4=21.3177816 eg3_time5=44.060664 eg3_level1=0 eg3_level2=1 eg3_level3=1 eg3_level4=0 eg3_level5=0 amplitude_cc16=100 ampeg_attack=0 ampeg_release=44.060664 eg4_time1=0 eg4_time2=0 eg4_time3=3.0382371 eg4_time4=21.3177816 eg4_time5=44.060664 eg4_level1=1 eg4_level2=1 eg4_level3=1 eg4_level4=1 eg4_level5=1
<region>sample=../Sample/Wave41.wav lokey=9 hikey=9 pitch_keycenter=54 tune=36 loop_mode=loop_continuous loop_start=38205 loop_end=43072 pan=0 eg2_cutoff=6688 eg2_sustain=4 eg2_time1=0 eg2_time2=0 eg2_time3=0 eg2_time4=0 eg2_time5=0 eg2_level1=0 eg2_level2=1 eg2_level3=1 eg2_level4=1 eg2_level5=1 eg2_cutoff_curvecc131=202 eg2_cutoff_oncc131=9766.6031746 eg3_amplitude=100 eg3_sustain=4 eg3_time1=0 eg3_time2=0 eg3_time3=2.867714 eg3_time4=20.1213065 eg3_time5=41.587729 eg3_level1=0 eg3_level2=1 eg3_level3=1 eg3_level4=0 eg3_level5=0 amplitude_cc16=100 ampeg_attack=0 ampeg_release=41.587729 eg4_time1=0 eg4_time2=0 eg4_time3=2.867714 eg4_time4=20.1213065 eg4_time5=41.587729 eg4_level1=1 eg4_level2=1 eg4_level3=1 eg4_level4=1 eg4_level5=1
<region>sample=../Sample/Wave41.wav lokey=10 hikey=10 pitch_keycenter=54 tune=36 loop_mode=loop_continuous loop_start=38205 loop_end=43072 pan=0 eg2_cutoff=6688 eg2_sustain=4 eg2_time1=0 eg2_time2=0 eg2_time3=0 eg2_time4=0 eg2_time5=0 eg2_level1=0 eg2_level2=1 eg2_level3=1 eg2_level4=1 eg2_level5=1 eg2_cutoff_curvecc131=202 eg2_cutoff_oncc131=9766.6031746 eg3_amplitude=100 eg3_sustain=4 eg3_time1=0 eg3_time2=0 eg3_time3=2.7067615 eg3_time4=18.9919843 eg3_time5=39.2535891 eg3_level1=0 eg3_level2=1 eg3_level3=1 eg3_level4=0 eg3_level5=0 amplitude_cc16=100 ampeg_attack=0 ampeg_release=39.2535891 eg4_time1=0 eg4_time2=0 eg4_time3=2.7067615 eg4_time4=18.9919843 eg4_time5=39.2535891 eg4_level1=1 eg4_level2=1 eg4_level3=1 eg4_level4=1 eg4_level5=1
<region>sample=../Sample/Wave41.wav lokey=11 hikey=11 pitch_keycenter=54 tune=36 loop_mode=loop_continuous loop_start=38205 loop_end=43072 pan=0 eg2_cutoff=6688 eg2_sustain=4 eg2_time1=0 eg2_time2=0 eg2_time3=0 eg2_time4=0 eg2_time5=0 eg2_level1=0 eg2_level2=1 eg2_level3=1 eg2_level4=1 eg2_level5=1 eg2_cutoff_curvecc131=202 eg2_cutoff_oncc131=9766.6031746 eg3_amplitude=100 eg3_sustain=4 eg3_time1=0 eg3_time2=0 eg3_time3=2.5548427 eg3_time4=17.9260462 eg3_time5=37.0504544 eg3_level1=0 eg3_level2=1 eg3_level3=1 eg3_level4=0 eg3_level5=0 amplitude_cc16=100 ampeg_attack=0 ampeg_release=37.0504544 eg4_time1=0 eg4_time2=0 eg4_time3=2.5548427 eg4_time4=17.9260462 eg4_time5=37.0504544 eg4_level1=1 eg4_level2=1 eg4_level3=1 eg4_level4=1 eg4_level5=1
<region>sample=../Sample/Wave41.wav lokey=12 hikey=12 pitch_keycenter=54 tune=36 loop_mode=loop_continuous loop_start=38205 loop_end=43072 pan=0 eg2_cutoff=6688 eg2_sustain=4 eg2_time1=0 eg2_time2=0 eg2_time3=0 eg2_time4=0 eg2_time5=0 eg2_level1=0 eg2_level2=1 eg2_level3=1 eg2_level4=1 eg2_level5=1 eg2_cutoff_curvecc131=202 eg2_cutoff_oncc131=9766.6031746 eg3_amplitude=100 eg3_sustain=4 eg3_time1=0 eg3_time2=0 eg3_time3=2.4114504 eg3_time4=16.9199345 eg3_time5=34.9709722 eg3_level1=0 eg3_level2=1 eg3_level3=1 eg3_level4=0 eg3_level5=0 amplitude_cc16=100 ampeg_attack=0 ampeg_release=34.9709722 eg4_time1=0 eg4_time2=0 eg4_time3=2.4114504 eg4_time4=16.9199345 eg4_time5=34.9709722 eg4_level1=1 eg4_level2=1 eg4_level3=1 eg4_level4=1 eg4_level5=1
<region>sample=../Sample/Wave41.wav lokey=13 hikey=13 pitch_keycenter=54 tune=36 loop_mode=loop_continuous loop_start=38205 loop_end=43072 pan=0 eg2_cutoff=6688 eg2_sustain=4 eg2_time1=0 eg2_time2=0 eg2_time3=0 eg2_time4=0 eg2_time5=0 eg2_level1=0 eg2_level2=1 eg2_level3=1 eg2_level4=1 eg2_level5=1 eg2_cutoff_curvecc131=202 eg2_cutoff_oncc131=9766.6031746 eg3_amplitude=100 eg3_sustain=4 eg3_time1=0 eg3_time2=0 eg3_time3=2.2761061 eg3_time4=15.9702915 eg3_time5=33.0082024 eg3_level1=0 eg3_level2=1 eg3_level3=1 eg3_level4=0 eg3_level5=0 amplitude_cc16=100 ampeg_attack=0 ampeg_release=33.0082024 eg4_time1=0 eg4_time2=0 eg4_time3=2.2761061 eg4_time4=15.9702915 eg4_time5=33.0082024 eg4_level1=1 eg4_level2=1 eg4_level3=1 eg4_level4=1 eg4_level5=1
<region>sample=../Sample/Wave41.wav lokey=14 hikey=14 pitch_keycenter=54 tune=36 loop_mode=loop_continuous loop_start=38205 loop_end=43072 pan=0 eg2_cutoff=6688 eg2_sustain=4 eg2_time1=0 eg2_time2=0 eg2_time3=0 eg2_time4=0 eg2_time5=0 eg2_level1=0 eg2_level2=1 eg2_level3=1 eg2_level4=1 eg2_level5=1 eg2_cutoff_curvecc131=202 eg2_cutoff_oncc131=9766.6031746 eg3_amplitude=100 eg3_sustain=4 eg3_time1=0 eg3_time2=0 eg3_time3=2.1483581 eg3_time4=15.0739479 eg3_time5=31.1555943 eg3_level1=0 eg3_level2=1 eg3_level3=1 eg3_level4=0 eg3_level5=0 amplitude_cc16=100 ampeg_attack=0 ampeg_release=31.1555943 eg4_time1=0 eg4_time2=0 eg4_time3=2.1483581 eg4_time4=15.0739479 eg4_time5=31.1555943 eg4_level1=1 eg4_level2=1 eg4_level3=1 eg4_level4=1 eg4_level5=1
<region>sample=../Sample/Wave41.wav lokey=15 hikey=15 pitch_keycenter=54 tune=36 loop_mode=loop_continuous loop_start=38205 loop_end=43072 pan=0 eg2_cutoff=6688 eg2_sustain=4 eg2_time1=0 eg2_time2=0 eg2_time3=0 eg2_time4=0 eg2_time5=0 eg2_level1=0 eg2_level2=1 eg2_level3=1 eg2_level4=1 eg2_level5=1 eg2_cutoff_curvecc131=202 eg2_cutoff_oncc131=9766.6031746 eg3_amplitude=100 eg3_sustain=4 eg3_time1=0 eg3_time2=0 eg3_time3=2.02778 eg3_time4=14.2279123 eg3_time5=29.4069652 eg3_level1=0 eg3_level2=1 eg3_level3=1 eg3_level4=0 eg3_level5=0 amplitude_cc16=100 ampeg_attack=0 ampeg_release=29.4069652 eg4_time1=0 eg4_time2=0 eg4_time3=2.02778 eg4_time4=14.2279123 eg4_time5=29.4069652 eg4_level1=1 eg4_level2=1 eg4_level3=1 eg4_level4=1 eg4_level5=1
<region>sample=../Sample/Wave41.wav lokey=16 hikey=16 pitch_keycenter=54 tune=36 loop_mode=loop_continuous loop_start=38205 loop_end=43072 pan=0 eg2_cutoff=6688 eg2_sustain=4 eg2_time1=0 eg2_time2=0 eg2_time3=0 eg2_time4=0 eg2_time5=0 eg2_level1=0 eg2_level2=1 eg2_level3=1 eg2_level4=1 eg2_level5=1 eg2_cutoff_curvecc131=202 eg2_cutoff_oncc131=9766.6031746 eg3_amplitude=100 eg3_sustain=4 eg3_time1=0 eg3_time2=0 eg3_time3=1.9139694 eg3_time4=13.4293609 eg3_time5=27.7564791 eg3_level1=0 eg3_level2=1 eg3_level3=1 eg3_level4=0 eg3_level5=0 amplitude_cc16=100 ampeg_attack=0 ampeg_release=27.7564791 eg4_time1=0 eg4_time2=0 eg4_time3=1.9139694 eg4_time4=13.4293609 eg4_time5=27.7564791 eg4_level1=1 eg4_level2=1 eg4_level3=1 eg4_level4=1 eg4_level5=1
<region>sample=../Sample/Wave41.wav lokey=17 hikey=17 pitch_keycenter=54 tune=36 loop_mode=loop_continuous loop_start=38205 loop_end=43072 pan=0 eg2_cutoff=6688 eg2_sustain=4 eg2_time1=0 eg2_time2=0 eg2_time3=0 eg2_time4=0 eg2_time5=0 eg2_level1=0 eg2_level2=1 eg2_level3=1 eg2_level4=1 eg2_level5=1 eg2_cutoff_curvecc131=202 eg2_cutoff_oncc131=9766.6031746 eg3_amplitude=100 eg3_sustain=4 eg3_time1=0 eg3_time2=0 eg3_time3=1.8065466 eg3_time4=12.6756288 eg3_time5=26.1986276 eg3_level1=0 eg3_level2=1 eg3_level3=1 eg3_level4=0 eg3_level5=0 amplitude_cc16=100 ampeg_attack=0 ampeg_release=26.1986276 eg4_time1=0 eg4_time2=0 eg4_time3=1.8065466 eg4_time4=12.6756288 eg4_time5=26.1986276 eg4_level1=1 eg4_level2=1 eg4_level3=1 eg4_level4=1 eg4_level5=1
<region>sample=../Sample/Wave41.wav lokey=18 hikey=18 pitch_keycenter=54 tune=36 loop_mode=loop_continuous loop_start=38205 loop_end=43072 pan=0 eg2_cutoff=6688 eg2_sustain=4 eg2_time1=0 eg2_time2=0 eg2_time3=0 eg2_time4=0 eg2_time5=0 eg2_level1=0 eg2_level2=1 eg2_level3=1 eg2_level4=1 eg2_level5=1 eg2_cutoff_curvecc131=202 eg2_cutoff_oncc131=9766.6031746 eg3_amplitude=100 eg3_sustain=4 eg3_time1=0 eg3_time2=0 eg3_time3=1.7051529 eg3_time4=11.9642004 eg3_time5=24.7282116 eg3_level1=0 eg3_level2=1 eg3_level3=1 eg3_level4=0 eg3_level5=0 amplitude_cc16=100 ampeg_attack=0 ampeg_release=24.7282116 eg4_time1=0 eg4_time2=0 eg4_time3=1.7051529 eg4_time4=11.9642004 eg4_time5=24.7282116 eg4_level1=1 eg4_level2=1 eg4_level3=1 eg4_level4=1 eg4_level5=1
<region>sample=../Sample/Wave41.wav lokey=19 hikey=19 pitch_keycenter=54 tune=36 loop_mode=loop_continuous loop_start=38205 loop_end=43072 pan=0 eg2_cutoff=6688 eg2_sustain=4 eg2_time1=0 eg2_time2=0 eg2_time3=0 eg2_time4=0 eg2_time5=0 eg2_level1=0 eg2_level2=1 eg2_level3=1 eg2_level4=1 eg2_level5=1 eg2_cutoff_curvecc131=202 eg2_cutoff_oncc131=9766.6031746 eg3_amplitude=100 eg3_sustain=4 eg3_time1=0 eg3_time2=0 eg3_time3=1.60945 eg3_time4=11.2927014 eg3_time5=23.3403237 eg3_level1=0 eg3_level2=1 eg3_level3=1 eg3_level4=0 eg3_level5=0 amplitude_cc16=100 ampeg_attack=0 ampeg_release=23.3403237 eg4_time1=0 eg4_time2=0 eg4_time3=1.60945 eg4_time4=11.2927014 eg4_time5=23.3403237 eg4_level1=1 eg4_level2=1 eg4_level3=1 eg4_level4=1 eg4_level5=1
<region>sample=../Sample/Wave41.wav lokey=20 hikey=20 pitch_keycenter=54 tune=36 loop_mode=loop_continuous loop_start=38205 loop_end=43072 pan=0 eg2_cutoff=6688 eg2_sustain=4 eg2_time1=0 eg2_time2=0 eg2_time3=0 eg2_time4=0 eg2_time5=0 eg2_level1=0 eg2_level2=1 eg2_level3=1 eg2_level4=1 eg2_level5=1 eg2_cutoff_curvecc131=202 eg2_cutoff_oncc131=9766.6031746 eg3_amplitude=100 eg3_sustain=4 eg3_time1=0 eg3_time2=0 eg3_time3=1.5191185 eg3_time4=10.6588908 eg3_time5=22.030332 eg3_level1=0 eg3_level2=1 eg3_level3=1 eg3_level4=0 eg3_level5=0 amplitude_cc16=100 ampeg_attack=0 ampeg_release=22.030332 eg4_time1=0 eg4_time2=0 eg4_time3=1.5191185 eg4_time4=10.6588908 eg4_time5=22.030332 eg4_level1=1 eg4_level2=1 eg4_level3=1 eg4_level4=1 eg4_level5=1
<region>sample=../Sample/Wave41.wav lokey=21 hikey=21 pitch_keycenter=54 tune=36 loop_mode=loop_continuous loop_start=38205 loop_end=43072 pan=0 eg2_cutoff=6688 eg2_sustain=4 eg2_time1=0 eg2_time2=0 eg2_time3=0 eg2_time4=0 eg2_time5=0 eg2_level1=0 eg2_level2=1 eg2_level3=1 eg2_level4=1 eg2_level5=1 eg2_cutoff_curvecc131=202 eg2_cutoff_oncc131=9766.6031746 eg3_amplitude=100 eg3_sustain=4 eg3_time1=0 eg3_time2=0 eg3_time3=1.433857 eg3_time4=10.0606532 eg3_time5=20.7938645 eg3_level1=0 eg3_level2=1 eg3_level3=1 eg3_level4=0 eg3_level5=0 amplitude_cc16=100 ampeg_attack=0 ampeg_release=20.7938645 eg4_time1=0 eg4_time2=0 eg4_time3=1.433857 eg4_time4=10.0606532 eg4_time5=20.7938645 eg4_level1=1 eg4_level2=1 eg4_level3=1 eg4_level4=1 eg4_level5=1
<region>sample=../Sample/Wave41.wav lokey=22 hikey=22 pitch_keycenter=54 tune=36 loop_mode=loop_continuous loop_start=38205 loop_end=43072 pan=0 eg2_cutoff=6688 eg2_sustain=4 eg2_time1=0 eg2_time2=0 eg2_time3=0 eg2_time4=0 eg2_time5=0 eg2_level1=0 eg2_level2=1 eg2_level3=1 eg2_level4=1 eg2_level5=1 eg2_cutoff_curvecc131=202 eg2_cutoff_oncc131=9766.6031746 eg3_amplitude=100 eg3_sustain=4 eg3_time1=0 eg3_time2=0 eg3_time3=1.3533808 eg3_time4=9.4959922 eg3_time5=19.6267946 eg3_level1=0 eg3_level2=1 eg3_level3=1 eg3_level4=0 eg3_level5=0 amplitude_cc16=100 ampeg_attack=0 ampeg_release=19.6267946 eg4_time1=0 eg4_time2=0 eg4_time3=1.3533808 eg4_time4=9.4959922 eg4_time5=19.6267946 eg4_level1=1 eg4_level2=1 eg4_level3=1 eg4_level4=1 eg4_level5=1
<region>sample=../Sample/Wave41.wav lokey=23 hikey=23 pitch_keycenter=54 tune=36 loop_mode=loop_continuous loop_start=38205 loop_end=43072 pan=0 eg2_cutoff=6688 eg2_sustain=4 eg2_time1=0 eg2_time2=0 eg2_time3=0 eg2_time4=0 eg2_time5=0 eg2_level1=0 eg2_level2=1 eg2_level3=1 eg2_level4=1 eg2_level5=1 eg2_cutoff_curvecc131=202 eg2_cutoff_oncc131=9766.6031746 eg3_amplitude=100 eg3_sustain=4 eg3_time1=0 eg3_time2=0 eg3_time3=1.2774213 eg3_time4=8.9630231 eg3_time5=18.5252272 eg3_level1=0 eg3_level2=1 eg3_level3=1 eg3_level4=0 eg3_level5=0 amplitude_cc16=100 ampeg_attack=0 ampeg_release=18.5252272 eg4_time1=0 eg4_time2=0 eg4_time3=1.2774213 eg4_time4=8.9630231 eg4_time5=18.5252272 eg4_level1=1 eg4_level2=1 eg4_level3=1 eg4_level4=1 eg4_level5=1
<region>sample=../Sample/Wave41.wav lokey=24 hikey=24 pitch_keycenter=54 tune=36 loop_mode=loop_continuous loop_start=38205 loop_end=43072 pan=0 eg2_cutoff=6688 eg2_sustain=4 eg2_time1=0 eg2_time2=0 eg2_time3=0 eg2_time4=0 eg2_time5=0 eg2_level1=0 eg2_level2=1 eg2_level3=1 eg2_level4=1 eg2_level5=1 eg2_cutoff_curvecc131=202 eg2_cutoff_oncc131=9766.6031746 eg3_amplitude=100 eg3_sustain=4 eg3_time1=0 eg3_time2=0 eg3_time3=1.2057252 eg3_time4=8.4599672 eg3_time5=17.4854861 eg3_level1=0 eg3_level2=1 eg3_level3=1 eg3_level4=0 eg3_level5=0 amplitude_cc16=100 ampeg_attack=0 ampeg_release=17.4854861 eg4_time1=0 eg4_time2=0 eg4_time3=1.2057252 eg4_time4=8.4599672 eg4_time5=17.4854861 eg4_level1=1 eg4_level2=1 eg4_level3=1 eg4_level4=1 eg4_level5=1
<region>sample=../Sample/Wave41.wav lokey=25 hikey=25 pitch_keycenter=54 tune=36 loop_mode=loop_continuous loop_start=38205 loop_end=43072 pan=0 eg2_cutoff=6688 eg2_sustain=4 eg2_time1=0 eg2_time2=0 eg2_time3=0 eg2_time4=0 eg2_time5=0 eg2_level1=0 eg2_level2=1 eg2_level3=1 eg2_level4=1 eg2_level5=1 eg2_cutoff_curvecc131=202 eg2_cutoff_oncc131=9766.6031746 eg3_amplitude=100 eg3_sustain=4 eg3_time1=0 eg3_time2=0 eg3_time3=1.138053 eg3_time4=7.9851458 eg3_time5=16.5041012 eg3_level1=0 eg3_level2=1 eg3_level3=1 eg3_level4=0 eg3_level5=0 amplitude_cc16=100 ampeg_attack=0 ampeg_release=16.5041012 eg4_time1=0 eg4_time2=0 eg4_time3=1.138053 eg4_time4=7.9851458 eg4_time5=16.5041012 eg4_level1=1 eg4_level2=1 eg4_level3=1 eg4_level4=1 eg4_level5=1
<region>sample=../Sample/Wave41.wav lokey=26 hikey=26 pitch_keycenter=54 tune=36 loop_mode=loop_continuous loop_start=38205 loop_end=43072 pan=0 eg2_cutoff=6688 eg2_sustain=4 eg2_time1=0 eg2_time2=0 eg2_time3=0 eg2_time4=0 eg2_time5=0 eg2_level1=0 eg2_level2=1 eg2_level3=1 eg2_level4=1 eg2_level5=1 eg2_cutoff_curvecc131=202 eg2_cutoff_oncc131=9766.6031746 eg3_amplitude=100 eg3_sustain=4 eg3_time1=0 eg3_time2=0 eg3_time3=1.074179 eg3_time4=7.536974 eg3_time5=15.5777972 eg3_level1=0 eg3_level2=1 eg3_level3=1 eg3_level4=0 eg3_level5=0 amplitude_cc16=100 ampeg_attack=0 ampeg_release=15.5777972 eg4_time1=0 eg4_time2=0 eg4_time3=1.074179 eg4_time4=7.536974 eg4_time5=15.5777972 eg4_level1=1 eg4_level2=1 eg4_level3=1 eg4_level4=1 eg4_level5=1
<region>sample=../Sample/Wave41.wav lokey=27 hikey=27 pitch_keycenter=54 tune=36 loop_mode=loop_continuous loop_start=38205 loop_end=43072 pan=0 eg2_cutoff=6688 eg2_sustain=4 eg2_time1=0 eg2_time2=0 eg2_time3=0 eg2_time4=0 eg2_time5=0 eg2_level1=0 eg2_level2=1 eg2_level3=1 eg2_level4=1 eg2_level5=1 eg2_cutoff_curvecc131=202 eg2_cutoff_oncc131=9766.6031746 eg3_amplitude=100 eg3_sustain=4 eg3_time1=0 eg3_time2=0 eg3_time3=1.01389 eg3_time4=7.1139561 eg3_time5=14.7034826 eg3_level1=0 eg3_level2=1 eg3_level3=1 eg3_level4=0 eg3_level5=0 amplitude_cc16=100 ampeg_attack=0 ampeg_release=14.7034826 eg4_time1=0 eg4_time2=0 eg4_time3=1.01389 eg4_time4=7.1139561 eg4_time5=14.7034826 eg4_level1=1 eg4_level2=1 eg4_level3=1 eg4_level4=1 eg4_level5=1
<region>sample=../Sample/Wave41.wav lokey=28 hikey=28 pitch_keycenter=54 tune=36 loop_mode=loop_continuous loop_start=38205 loop_end=43072 pan=0 eg2_cutoff=6688 eg2_sustain=4 eg2_time1=0 eg2_time2=0 eg2_time3=0 eg2_time4=0 eg2_time5=0 eg2_level1=0 eg2_level2=1 eg2_level3=1 eg2_level4=1 eg2_level5=1 eg2_cutoff_curvecc131=202 eg2_cutoff_oncc131=9766.6031746 eg3_amplitude=100 eg3_sustain=4 eg3_time1=0 eg3_time2=0 eg3_time3=0.9569847 eg3_time4=6.7146805 eg3_time5=13.8782395 eg3_level1=0 eg3_level2=1 eg3_level3=1 eg3_level4=0 eg3_level5=0 amplitude_cc16=100 ampeg_attack=0 ampeg_release=13.8782395 eg4_time1=0 eg4_time2=0 eg4_time3=0.9569847 eg4_time4=6.7146805 eg4_time5=13.8782395 eg4_level1=1 eg4_level2=1 eg4_level3=1 eg4_level4=1 eg4_level5=1
<region>sample=../Sample/Wave41.wav lokey=29 hikey=29 pitch_keycenter=54 tune=36 loop_mode=loop_continuous loop_start=38205 loop_end=43072 pan=0 eg2_cutoff=6688 eg2_sustain=4 eg2_time1=0 eg2_time2=0 eg2_time3=0 eg2_time4=0 eg2_time5=0 eg2_level1=0 eg2_level2=1 eg2_level3=1 eg2_level4=1 eg2_level5=1 eg2_cutoff_curvecc131=202 eg2_cutoff_oncc131=9766.6031746 eg3_amplitude=100 eg3_sustain=4 eg3_time1=0 eg3_time2=0 eg3_time3=0.9032733 eg3_time4=6.3378144 eg3_time5=13.0993138 eg3_level1=0 eg3_level2=1 eg3_level3=1 eg3_level4=0 eg3_level5=0 amplitude_cc16=100 ampeg_attack=0 ampeg_release=13.0993138 eg4_time1=0 eg4_time2=0 eg4_time3=0.9032733 eg4_time4=6.3378144 eg4_time5=13.0993138 eg4_level1=1 eg4_level2=1 eg4_level3=1 eg4_level4=1 eg4_level5=1
<region>sample=../Sample/Wave41.wav lokey=30 hikey=30 pitch_keycenter=54 tune=36 loop_mode=loop_continuous loop_start=38205 loop_end=43072 pan=0 eg2_cutoff=6688 eg2_sustain=4 eg2_time1=0 eg2_time2=0 eg2_time3=0 eg2_time4=0 eg2_time5=0 eg2_level1=0 eg2_level2=1 eg2_level3=1 eg2_level4=1 eg2_level5=1 eg2_cutoff_curvecc131=202 eg2_cutoff_oncc131=9766.6031746 eg3_amplitude=100 eg3_sustain=4 eg3_time1=0 eg3_time2=0 eg3_time3=0.8525765 eg3_time4=5.9821002 eg3_time5=12.3641058 eg3_level1=0 eg3_level2=1 eg3_level3=1 eg3_level4=0 eg3_level5=0 amplitude_cc16=100 ampeg_attack=0 ampeg_release=12.3641058 eg4_time1=0 eg4_time2=0 eg4_time3=0.8525765 eg4_time4=5.9821002 eg4_time5=12.3641058 eg4_level1=1 eg4_level2=1 eg4_level3=1 eg4_level4=1 eg4_level5=1
<region>sample=../Sample/Wave41.wav lokey=31 hikey=31 pitch_keycenter=54 tune=36 loop_mode=loop_continuous loop_start=38205 loop_end=43072 pan=0 eg2_cutoff=6688 eg2_sustain=4 eg2_time1=0 eg2_time2=0 eg2_time3=0 eg2_time4=0 eg2_time5=0 eg2_level1=0 eg2_level2=1 eg2_level3=1 eg2_level4=1 eg2_level5=1 eg2_cutoff_curvecc131=202 eg2_cutoff_oncc131=9766.6031746 eg3_amplitude=100 eg3_sustain=4 eg3_time1=0 eg3_time2=0 eg3_time3=0.804725 eg3_time4=5.6463507 eg3_time5=11.6701619 eg3_level1=0 eg3_level2=1 eg3_level3=1 eg3_level4=0 eg3_level5=0 amplitude_cc16=100 ampeg_attack=0 ampeg_release=11.6701619 eg4_time1=0 eg4_time2=0 eg4_time3=0.804725 eg4_time4=5.6463507 eg4_time5=11.6701619 eg4_level1=1 eg4_level2=1 eg4_level3=1 eg4_level4=1 eg4_level5=1
<region>sample=../Sample/Wave41.wav lokey=32 hikey=32 pitch_keycenter=54 tune=36 loop_mode=loop_continuous loop_start=38205 loop_end=43072 pan=0 eg2_cutoff=6688 eg2_sustain=4 eg2_time1=0 eg2_time2=0 eg2_time3=0 eg2_time4=0 eg2_time5=0 eg2_level1=0 eg2_level2=1 eg2_level3=1 eg2_level4=1 eg2_level5=1 eg2_cutoff_curvecc131=202 eg2_cutoff_oncc131=9766.6031746 eg3_amplitude=100 eg3_sustain=4 eg3_time1=0 eg3_time2=0 eg3_time3=0.7595593 eg3_time4=5.3294454 eg3_time5=11.015166 eg3_level1=0 eg3_level2=1 eg3_level3=1 eg3_level4=0 eg3_level5=0 amplitude_cc16=100 ampeg_attack=0 ampeg_release=11.015166 eg4_time1=0 eg4_time2=0 eg4_time3=0.7595593 eg4_time4=5.3294454 eg4_time5=11.015166 eg4_level1=1 eg4_level2=1 eg4_level3=1 eg4_level4=1 eg4_level5=1
<region>sample=../Sample/Wave41.wav lokey=33 hikey=33 pitch_keycenter=54 tune=36 loop_mode=loop_continuous loop_start=38205 loop_end=43072 pan=0 eg2_cutoff=6688 eg2_sustain=4 eg2_time1=0 eg2_time2=0 eg2_time3=0 eg2_time4=0 eg2_time5=0 eg2_level1=0 eg2_level2=1 eg2_level3=1 eg2_level4=1 eg2_level5=1 eg2_cutoff_curvecc131=202 eg2_cutoff_oncc131=9766.6031746 eg3_amplitude=100 eg3_sustain=4 eg3_time1=0 eg3_time2=0 eg3_time3=0.7169285 eg3_time4=5.0303266 eg3_time5=10.3969322 eg3_level1=0 eg3_level2=1 eg3_level3=1 eg3_level4=0 eg3_level5=0 amplitude_cc16=100 ampeg_attack=0 ampeg_release=10.3969322 eg4_time1=0 eg4_time2=0 eg4_time3=0.7169285 eg4_time4=5.0303266 eg4_time5=10.3969322 eg4_level1=1 eg4_level2=1 eg4_level3=1 eg4_level4=1 eg4_level5=1
<region>sample=../Sample/Wave41.wav lokey=34 hikey=34 pitch_keycenter=54 tune=36 loop_mode=loop_continuous loop_start=38205 loop_end=43072 pan=0 eg2_cutoff=6688 eg2_sustain=4 eg2_time1=0 eg2_time2=0 eg2_time3=0 eg2_time4=0 eg2_time5=0 eg2_level1=0 eg2_level2=1 eg2_level3=1 eg2_level4=1 eg2_level5=1 eg2_cutoff_curvecc131=202 eg2_cutoff_oncc131=9766.6031746 eg3_amplitude=100 eg3_sustain=4 eg3_time1=0 eg3_time2=0 eg3_time3=0.6766904 eg3_time4=4.7479961 eg3_time5=9.8133973 eg3_level1=0 eg3_level2=1 eg3_level3=1 eg3_level4=0 eg3_level5=0 amplitude_cc16=100 ampeg_attack=0 ampeg_release=9.8133973 eg4_time1=0 eg4_time2=0 eg4_time3=0.6766904 eg4_time4=4.7479961 eg4_time5=9.8133973 eg4_level1=1 eg4_level2=1 eg4_level3=1 eg4_level4=1 eg4_level5=1
<region>sample=../Sample/Wave41.wav lokey=35 hikey=35 pitch_keycenter=54 tune=36 loop_mode=loop_continuous loop_start=38205 loop_end=43072 pan=0 eg2_cutoff=6688 eg2_sustain=4 eg2_time1=0 eg2_time2=0 eg2_time3=0 eg2_time4=0 eg2_time5=0 eg2_level1=0 eg2_level2=1 eg2_level3=1 eg2_level4=1 eg2_level5=1 eg2_cutoff_curvecc131=202 eg2_cutoff_oncc131=9766.6031746 eg3_amplitude=100 eg3_sustain=4 eg3_time1=0 eg3_time2=0 eg3_time3=0.6387107 eg3_time4=4.4815115 eg3_time5=9.2626136 eg3_level1=0 eg3_level2=1 eg3_level3=1 eg3_level4=0 eg3_level5=0 amplitude_cc16=100 ampeg_attack=0 ampeg_release=9.2626136 eg4_time1=0 eg4_time2=0 eg4_time3=0.6387107 eg4_time4=4.4815115 eg4_time5=9.2626136 eg4_level1=1 eg4_level2=1 eg4_level3=1 eg4_level4=1 eg4_level5=1
<region>sample=../Sample/Wave41.wav lokey=36 hikey=36 pitch_keycenter=54 tune=36 loop_mode=loop_continuous loop_start=38205 loop_end=43072 pan=0 eg2_cutoff=6688 eg2_sustain=4 eg2_time1=0 eg2_time2=0 eg2_time3=0 eg2_time4=0 eg2_time5=0 eg2_level1=0 eg2_level2=1 eg2_level3=1 eg2_level4=1 eg2_level5=1 eg2_cutoff_curvecc131=202 eg2_cutoff_oncc131=9766.6031746 eg3_amplitude=100 eg3_sustain=4 eg3_time1=0 eg3_time2=0 eg3_time3=0.6028626 eg3_time4=4.2299836 eg3_time5=8.7427431 eg3_level1=0 eg3_level2=1 eg3_level3=1 eg3_level4=0 eg3_level5=0 amplitude_cc16=100 ampeg_attack=0 ampeg_release=8.7427431 eg4_time1=0 eg4_time2=0 eg4_time3=0.6028626 eg4_time4=4.2299836 eg4_time5=8.7427431 eg4_level1=1 eg4_level2=1 eg4_level3=1 eg4_level4=1 eg4_level5=1
<region>sample=../Sample/Wave41.wav lokey=37 hikey=37 pitch_keycenter=54 tune=36 loop_mode=loop_continuous loop_start=38205 loop_end=43072 pan=0 eg2_cutoff=6688 eg2_sustain=4 eg2_time1=0 eg2_time2=0 eg2_time3=0 eg2_time4=0 eg2_time5=0 eg2_level1=0 eg2_level2=1 eg2_level3=1 eg2_level4=1 eg2_level5=1 eg2_cutoff_curvecc131=202 eg2_cutoff_oncc131=9766.6031746 eg3_amplitude=100 eg3_sustain=4 eg3_time1=0 eg3_time2=0 eg3_time3=0.5690265 eg3_time4=3.9925729 eg3_time5=8.2520506 eg3_level1=0 eg3_level2=1 eg3_level3=1 eg3_level4=0 eg3_level5=0 amplitude_cc16=100 ampeg_attack=0 ampeg_release=8.2520506 eg4_time1=0 eg4_time2=0 eg4_time3=0.5690265 eg4_time4=3.9925729 eg4_time5=8.2520506 eg4_level1=1 eg4_level2=1 eg4_level3=1 eg4_level4=1 eg4_level5=1
<region>sample=../Sample/Wave41.wav lokey=38 hikey=38 pitch_keycenter=54 tune=36 loop_mode=loop_continuous loop_start=38205 loop_end=43072 pan=0 eg2_cutoff=6688 eg2_sustain=4 eg2_time1=0 eg2_time2=0 eg2_time3=0 eg2_time4=0 eg2_time5=0 eg2_level1=0 eg2_level2=1 eg2_level3=1 eg2_level4=1 eg2_level5=1 eg2_cutoff_curvecc131=202 eg2_cutoff_oncc131=9766.6031746 eg3_amplitude=100 eg3_sustain=4 eg3_time1=0 eg3_time2=0 eg3_time3=0.5370895 eg3_time4=3.768487 eg3_time5=7.7888986 eg3_level1=0 eg3_level2=1 eg3_level3=1 eg3_level4=0 eg3_level5=0 amplitude_cc16=100 ampeg_attack=0 ampeg_release=7.7888986 eg4_time1=0 eg4_time2=0 eg4_time3=0.5370895 eg4_time4=3.768487 eg4_time5=7.7888986 eg4_level1=1 eg4_level2=1 eg4_level3=1 eg4_level4=1 eg4_level5=1
<region>sample=../Sample/Wave41.wav lokey=39 hikey=39 pitch_keycenter=54 tune=36 loop_mode=loop_continuous loop_start=38205 loop_end=43072 pan=0 eg2_cutoff=6688 eg2_sustain=4 eg2_time1=0 eg2_time2=0 eg2_time3=0 eg2_time4=0 eg2_time5=0 eg2_level1=0 eg2_level2=1 eg2_level3=1 eg2_level4=1 eg2_level5=1 eg2_cutoff_curvecc131=202 eg2_cutoff_oncc131=9766.6031746 eg3_amplitude=100 eg3_sustain=4 eg3_time1=0 eg3_time2=0 eg3_time3=0.506945 eg3_time4=3.5569781 eg3_time5=7.3517413 eg3_level1=0 eg3_level2=1 eg3_level3=1 eg3_level4=0 eg3_level5=0 amplitude_cc16=100 ampeg_attack=0 ampeg_release=7.3517413 eg4_time1=0 eg4_time2=0 eg4_time3=0.506945 eg4_time4=3.5569781 eg4_time5=7.3517413 eg4_level1=1 eg4_level2=1 eg4_level3=1 eg4_level4=1 eg4_level5=1
<region>sample=../Sample/Wave41.wav lokey=40 hikey=40 pitch_keycenter=54 tune=36 loop_mode=loop_continuous loop_start=38205 loop_end=43072 pan=0 eg2_cutoff=6688 eg2_sustain=4 eg2_time1=0 eg2_time2=0 eg2_time3=0 eg2_time4=0 eg2_time5=0 eg2_level1=0 eg2_level2=1 eg2_level3=1 eg2_level4=1 eg2_level5=1 eg2_cutoff_curvecc131=202 eg2_cutoff_oncc131=9766.6031746 eg3_amplitude=100 eg3_sustain=4 eg3_time1=0 eg3_time2=0 eg3_time3=0.4784924 eg3_time4=3.3573402 eg3_time5=6.9391198 eg3_level1=0 eg3_level2=1 eg3_level3=1 eg3_level4=0 eg3_level5=0 amplitude_cc16=100 ampeg_attack=0 ampeg_release=6.9391198 eg4_time1=0 eg4_time2=0 eg4_time3=0.4784924 eg4_time4=3.3573402 eg4_time5=6.9391198 eg4_level1=1 eg4_level2=1 eg4_level3=1 eg4_level4=1 eg4_level5=1
<region>sample=../Sample/Wave41.wav lokey=41 hikey=41 pitch_keycenter=54 tune=36 loop_mode=loop_continuous loop_start=38205 loop_end=43072 pan=0 eg2_cutoff=6688 eg2_sustain=4 eg2_time1=0 eg2_time2=0 eg2_time3=0 eg2_time4=0 eg2_time5=0 eg2_level1=0 eg2_level2=1 eg2_level3=1 eg2_level4=1 eg2_level5=1 eg2_cutoff_curvecc131=202 eg2_cutoff_oncc131=9766.6031746 eg3_amplitude=100 eg3_sustain=4 eg3_time1=0 eg3_time2=0 eg3_time3=0.4516366 eg3_time4=3.1689072 eg3_time5=6.5496569 eg3_level1=0 eg3_level2=1 eg3_level3=1 eg3_level4=0 eg3_level5=0 amplitude_cc16=100 ampeg_attack=0 ampeg_release=6.5496569 eg4_time1=0 eg4_time2=0 eg4_time3=0.4516366 eg4_time4=3.1689072 eg4_time5=6.5496569 eg4_level1=1 eg4_level2=1 eg4_level3=1 eg4_level4=1 eg4_level5=1
<region>sample=../Sample/Wave41.wav lokey=42 hikey=42 pitch_keycenter=54 tune=36 loop_mode=loop_continuous loop_start=38205 loop_end=43072 pan=0 eg2_cutoff=6688 eg2_sustain=4 eg2_time1=0 eg2_time2=0 eg2_time3=0 eg2_time4=0 eg2_time5=0 eg2_level1=0 eg2_level2=1 eg2_level3=1 eg2_level4=1 eg2_level5=1 eg2_cutoff_curvecc131=202 eg2_cutoff_oncc131=9766.6031746 eg3_amplitude=100 eg3_sustain=4 eg3_time1=0 eg3_time2=0 eg3_time3=0.4262882 eg3_time4=2.9910501 eg3_time5=6.1820529 eg3_level1=0 eg3_level2=1 eg3_level3=1 eg3_level4=0 eg3_level5=0 amplitude_cc16=100 ampeg_attack=0 ampeg_release=6.1820529 eg4_time1=0 eg4_time2=0 eg4_time3=0.4262882 eg4_time4=2.9910501 eg4_time5=6.1820529 eg4_level1=1 eg4_level2=1 eg4_level3=1 eg4_level4=1 eg4_level5=1
<region>sample=../Sample/Wave41.wav lokey=43 hikey=43 pitch_keycenter=54 tune=36 loop_mode=loop_continuous loop_start=38205 loop_end=43072 pan=0 eg2_cutoff=6688 eg2_sustain=4 eg2_time1=0 eg2_time2=0 eg2_time3=0 eg2_time4=0 eg2_time5=0 eg2_level1=0 eg2_level2=1 eg2_level3=1 eg2_level4=1 eg2_level5=1 eg2_cutoff_curvecc131=202 eg2_cutoff_oncc131=9766.6031746 eg3_amplitude=100 eg3_sustain=4 eg3_time1=0 eg3_time2=0 eg3_time3=0.4023625 eg3_time4=2.8231754 eg3_time5=5.8350809 eg3_level1=0 eg3_level2=1 eg3_level3=1 eg3_level4=0 eg3_level5=0 amplitude_cc16=100 ampeg_attack=0 ampeg_release=5.8350809 eg4_time1=0 eg4_time2=0 eg4_time3=0.4023625 eg4_time4=2.8231754 eg4_time5=5.8350809 eg4_level1=1 eg4_level2=1 eg4_level3=1 eg4_level4=1 eg4_level5=1
<region>sample=../Sample/Wave41.wav lokey=44 hikey=44 pitch_keycenter=54 tune=36 loop_mode=loop_continuous loop_start=38205 loop_end=43072 pan=0 eg2_cutoff=6688 eg2_sustain=4 eg2_time1=0 eg2_time2=0 eg2_time3=0 eg2_time4=0 eg2_time5=0 eg2_level1=0 eg2_level2=1 eg2_level3=1 eg2_level4=1 eg2_level5=1 eg2_cutoff_curvecc131=202 eg2_cutoff_oncc131=9766.6031746 eg3_amplitude=100 eg3_sustain=4 eg3_time1=0 eg3_time2=0 eg3_time3=0.3797796 eg3_time4=2.6647227 eg3_time5=5.507583 eg3_level1=0 eg3_level2=1 eg3_level3=1 eg3_level4=0 eg3_level5=0 amplitude_cc16=100 ampeg_attack=0 ampeg_release=5.507583 eg4_time1=0 eg4_time2=0 eg4_time3=0.3797796 eg4_time4=2.6647227 eg4_time5=5.507583 eg4_level1=1 eg4_level2=1 eg4_level3=1 eg4_level4=1 eg4_level5=1
<region>sample=../Sample/Wave41.wav lokey=45 hikey=45 pitch_keycenter=54 tune=36 loop_mode=loop_continuous loop_start=38205 loop_end=43072 pan=0 eg2_cutoff=6688 eg2_sustain=4 eg2_time1=0 eg2_time2=0 eg2_time3=0 eg2_time4=0 eg2_time5=0 eg2_level1=0 eg2_level2=1 eg2_level3=1 eg2_level4=1 eg2_level5=1 eg2_cutoff_curvecc131=202 eg2_cutoff_oncc131=9766.6031746 eg3_amplitude=100 eg3_sustain=4 eg3_time1=0 eg3_time2=0 eg3_time3=0.3584642 eg3_time4=2.5151633 eg3_time5=5.1984661 eg3_level1=0 eg3_level2=1 eg3_level3=1 eg3_level4=0 eg3_level5=0 amplitude_cc16=100 ampeg_attack=0 ampeg_release=5.1984661 eg4_time1=0 eg4_time2=0 eg4_time3=0.3584642 eg4_time4=2.5151633 eg4_time5=5.1984661 eg4_level1=1 eg4_level2=1 eg4_level3=1 eg4_level4=1 eg4_level5=1
<region>sample=../Sample/Wave41.wav lokey=46 hikey=46 pitch_keycenter=54 tune=36 loop_mode=loop_continuous loop_start=38205 loop_end=43072 pan=0 eg2_cutoff=6688 eg2_sustain=4 eg2_time1=0 eg2_time2=0 eg2_time3=0 eg2_time4=0 eg2_time5=0 eg2_level1=0 eg2_level2=1 eg2_level3=1 eg2_level4=1 eg2_level5=1 eg2_cutoff_curvecc131=202 eg2_cutoff_oncc131=9766.6031746 eg3_amplitude=100 eg3_sustain=4 eg3_time1=0 eg3_time2=0 eg3_time3=0.3383452 eg3_time4=2.373998 eg3_time5=4.9066986 eg3_level1=0 eg3_level2=1 eg3_level3=1 eg3_level4=0 eg3_level5=0 amplitude_cc16=100 ampeg_attack=0 ampeg_release=4.9066986 eg4_time1=0 eg4_time2=0 eg4_time3=0.3383452 eg4_time4=2.373998 eg4_time5=4.9066986 eg4_level1=1 eg4_level2=1 eg4_level3=1 eg4_level4=1 eg4_level5=1
<region>sample=../Sample/Wave41.wav lokey=47 hikey=47 pitch_keycenter=54 tune=36 loop_mode=loop_continuous loop_start=38205 loop_end=43072 pan=0 eg2_cutoff=6688 eg2_sustain=4 eg2_time1=0 eg2_time2=0 eg2_time3=0 eg2_time4=0 eg2_time5=0 eg2_level1=0 eg2_level2=1 eg2_level3=1 eg2_level4=1 eg2_level5=1 eg2_cutoff_curvecc131=202 eg2_cutoff_oncc131=9766.6031746 eg3_amplitude=100 eg3_sustain=4 eg3_time1=0 eg3_time2=0 eg3_time3=0.3193553 eg3_time4=2.2407558 eg3_time5=4.6313068 eg3_level1=0 eg3_level2=1 eg3_level3=1 eg3_level4=0 eg3_level5=0 amplitude_cc16=100 ampeg_attack=0 ampeg_release=4.6313068 eg4_time1=0 eg4_time2=0 eg4_time3=0.3193553 eg4_time4=2.2407558 eg4_time5=4.6313068 eg4_level1=1 eg4_level2=1 eg4_level3=1 eg4_level4=1 eg4_level5=1
<region>sample=../Sample/Wave41.wav lokey=48 hikey=48 pitch_keycenter=54 tune=36 loop_mode=loop_continuous loop_start=38205 loop_end=43072 pan=0 eg2_cutoff=6688 eg2_sustain=4 eg2_time1=0 eg2_time2=0 eg2_time3=0 eg2_time4=0 eg2_time5=0 eg2_level1=0 eg2_level2=1 eg2_level3=1 eg2_level4=1 eg2_level5=1 eg2_cutoff_curvecc131=202 eg2_cutoff_oncc131=9766.6031746 eg3_amplitude=100 eg3_sustain=4 eg3_time1=0 eg3_time2=0 eg3_time3=0.3014313 eg3_time4=2.1149918 eg3_time5=4.3713715 eg3_level1=0 eg3_level2=1 eg3_level3=1 eg3_level4=0 eg3_level5=0 amplitude_cc16=100 ampeg_attack=0 ampeg_release=4.3713715 eg4_time1=0 eg4_time2=0 eg4_time3=0.3014313 eg4_time4=2.1149918 eg4_time5=4.3713715 eg4_level1=1 eg4_level2=1 eg4_level3=1 eg4_level4=1 eg4_level5=1
<region>sample=../Sample/Wave41.wav lokey=49 hikey=49 pitch_keycenter=54 tune=36 loop_mode=loop_continuous loop_start=38205 loop_end=43072 pan=0 eg2_cutoff=6688 eg2_sustain=4 eg2_time1=0 eg2_time2=0 eg2_time3=0 eg2_time4=0 eg2_time5=0 eg2_level1=0 eg2_level2=1 eg2_level3=1 eg2_level4=1 eg2_level5=1 eg2_cutoff_curvecc131=202 eg2_cutoff_oncc131=9766.6031746 eg3_amplitude=100 eg3_sustain=4 eg3_time1=0 eg3_time2=0 eg3_time3=0.2845133 eg3_time4=1.9962864 eg3_time5=4.1260253 eg3_level1=0 eg3_level2=1 eg3_level3=1 eg3_level4=0 eg3_level5=0 amplitude_cc16=100 ampeg_attack=0 ampeg_release=4.1260253 eg4_time1=0 eg4_time2=0 eg4_time3=0.2845133 eg4_time4=1.9962864 eg4_time5=4.1260253 eg4_level1=1 eg4_level2=1 eg4_level3=1 eg4_level4=1 eg4_level5=1
<region>sample=../Sample/Wave41.wav lokey=50 hikey=50 pitch_keycenter=54 tune=36 loop_mode=loop_continuous loop_start=38205 loop_end=43072 pan=0 eg2_cutoff=6688 eg2_sustain=4 eg2_time1=0 eg2_time2=0 eg2_time3=0 eg2_time4=0 eg2_time5=0 eg2_level1=0 eg2_level2=1 eg2_level3=1 eg2_level4=1 eg2_level5=1 eg2_cutoff_curvecc131=202 eg2_cutoff_oncc131=9766.6031746 eg3_amplitude=100 eg3_sustain=4 eg3_time1=0 eg3_time2=0 eg3_time3=0.2685448 eg3_time4=1.8842435 eg3_time5=3.8944493 eg3_level1=0 eg3_level2=1 eg3_level3=1 eg3_level4=0 eg3_level5=0 amplitude_cc16=100 ampeg_attack=0 ampeg_release=3.8944493 eg4_time1=0 eg4_time2=0 eg4_time3=0.2685448 eg4_time4=1.8842435 eg4_time5=3.8944493 eg4_level1=1 eg4_level2=1 eg4_level3=1 eg4_level4=1 eg4_level5=1
<region>sample=../Sample/Wave41.wav lokey=51 hikey=51 pitch_keycenter=54 tune=36 loop_mode=loop_continuous loop_start=38205 loop_end=43072 pan=0 eg2_cutoff=6688 eg2_sustain=4 eg2_time1=0 eg2_time2=0 eg2_time3=0 eg2_time4=0 eg2_time5=0 eg2_level1=0 eg2_level2=1 eg2_level3=1 eg2_level4=1 eg2_level5=1 eg2_cutoff_curvecc131=202 eg2_cutoff_oncc131=9766.6031746 eg3_amplitude=100 eg3_sustain=4 eg3_time1=0 eg3_time2=0 eg3_time3=0.2534725 eg3_time4=1.778489 eg3_time5=3.6758706 eg3_level1=0 eg3_level2=1 eg3_level3=1 eg3_level4=0 eg3_level5=0 amplitude_cc16=100 ampeg_attack=0 ampeg_release=3.6758706 eg4_time1=0 eg4_time2=0 eg4_time3=0.2534725 eg4_time4=1.778489 eg4_time5=3.6758706 eg4_level1=1 eg4_level2=1 eg4_level3=1 eg4_level4=1 eg4_level5=1
<region>sample=../Sample/Wave41.wav lokey=52 hikey=52 pitch_keycenter=54 tune=36 loop_mode=loop_continuous loop_start=38205 loop_end=43072 pan=0 eg2_cutoff=6688 eg2_sustain=4 eg2_time1=0 eg2_time2=0 eg2_time3=0 eg2_time4=0 eg2_time5=0 eg2_level1=0 eg2_level2=1 eg2_level3=1 eg2_level4=1 eg2_level5=1 eg2_cutoff_curvecc131=202 eg2_cutoff_oncc131=9766.6031746 eg3_amplitude=100 eg3_sustain=4 eg3_time1=0 eg3_time2=0 eg3_time3=0.2392462 eg3_time4=1.6786701 eg3_time5=3.4695599 eg3_level1=0 eg3_level2=1 eg3_level3=1 eg3_level4=0 eg3_level5=0 amplitude_cc16=100 ampeg_attack=0 ampeg_release=3.4695599 eg4_time1=0 eg4_time2=0 eg4_time3=0.2392462 eg4_time4=1.6786701 eg4_time5=3.4695599 eg4_level1=1 eg4_level2=1 eg4_level3=1 eg4_level4=1 eg4_level5=1
<region>sample=../Sample/Wave41.wav lokey=53 hikey=53 pitch_keycenter=54 tune=36 loop_mode=loop_continuous loop_start=38205 loop_end=43072 pan=0 eg2_cutoff=6688 eg2_sustain=4 eg2_time1=0 eg2_time2=0 eg2_time3=0 eg2_time4=0 eg2_time5=0 eg2_level1=0 eg2_level2=1 eg2_level3=1 eg2_level4=1 eg2_level5=1 eg2_cutoff_curvecc131=202 eg2_cutoff_oncc131=9766.6031746 eg3_amplitude=100 eg3_sustain=4 eg3_time1=0 eg3_time2=0 eg3_time3=0.2258183 eg3_time4=1.5844536 eg3_time5=3.2748284 eg3_level1=0 eg3_level2=1 eg3_level3=1 eg3_level4=0 eg3_level5=0 amplitude_cc16=100 ampeg_attack=0 ampeg_release=3.2748284 eg4_time1=0 eg4_time2=0 eg4_time3=0.2258183 eg4_time4=1.5844536 eg4_time5=3.2748284 eg4_level1=1 eg4_level2=1 eg4_level3=1 eg4_level4=1 eg4_level5=1
<region>sample=../Sample/Wave41.wav lokey=54 hikey=54 pitch_keycenter=54 tune=36 loop_mode=loop_continuous loop_start=38205 loop_end=43072 pan=0 eg2_cutoff=6688 eg2_sustain=4 eg2_time1=0 eg2_time2=0 eg2_time3=0 eg2_time4=0 eg2_time5=0 eg2_level1=0 eg2_level2=1 eg2_level3=1 eg2_level4=1 eg2_level5=1 eg2_cutoff_curvecc131=202 eg2_cutoff_oncc131=9766.6031746 eg3_amplitude=100 eg3_sustain=4 eg3_time1=0 eg3_time2=0 eg3_time3=0.2131441 eg3_time4=1.4955251 eg3_time5=3.0910265 eg3_level1=0 eg3_level2=1 eg3_level3=1 eg3_level4=0 eg3_level5=0 amplitude_cc16=100 ampeg_attack=0 ampeg_release=3.0910265 eg4_time1=0 eg4_time2=0 eg4_time3=0.2131441 eg4_time4=1.4955251 eg4_time5=3.0910265 eg4_level1=1 eg4_level2=1 eg4_level3=1 eg4_level4=1 eg4_level5=1
<region>sample=../Sample/Wave41.wav lokey=55 hikey=55 pitch_keycenter=54 tune=36 loop_mode=loop_continuous loop_start=38205 loop_end=43072 pan=0 eg2_cutoff=6688 eg2_sustain=4 eg2_time1=0 eg2_time2=0 eg2_time3=0 eg2_time4=0 eg2_time5=0 eg2_level1=0 eg2_level2=1 eg2_level3=1 eg2_level4=1 eg2_level5=1 eg2_cutoff_curvecc131=202 eg2_cutoff_oncc131=9766.6031746 eg3_amplitude=100 eg3_sustain=4 eg3_time1=0 eg3_time2=0 eg3_time3=0.2011813 eg3_time4=1.4115877 eg3_time5=2.9175405 eg3_level1=0 eg3_level2=1 eg3_level3=1 eg3_level4=0 eg3_level5=0 amplitude_cc16=100 ampeg_attack=0 ampeg_release=2.9175405 eg4_time1=0 eg4_time2=0 eg4_time3=0.2011813 eg4_time4=1.4115877 eg4_time5=2.9175405 eg4_level1=1 eg4_level2=1 eg4_level3=1 eg4_level4=1 eg4_level5=1
<region>sample=../Sample/Wave41.wav lokey=56 hikey=56 pitch_keycenter=54 tune=36 loop_mode=loop_continuous loop_start=38205 loop_end=43072 pan=0 eg2_cutoff=6688 eg2_sustain=4 eg2_time1=0 eg2_time2=0 eg2_time3=0 eg2_time4=0 eg2_time5=0 eg2_level1=0 eg2_level2=1 eg2_level3=1 eg2_level4=1 eg2_level5=1 eg2_cutoff_curvecc131=202 eg2_cutoff_oncc131=9766.6031746 eg3_amplitude=100 eg3_sustain=4 eg3_time1=0 eg3_time2=0 eg3_time3=0.1898898 eg3_time4=1.3323614 eg3_time5=2.7537915 eg3_level1=0 eg3_level2=1 eg3_level3=1 eg3_level4=0 eg3_level5=0 amplitude_cc16=100 ampeg_attack=0 ampeg_release=2.7537915 eg4_time1=0 eg4_time2=0 eg4_time3=0.1898898 eg4_time4=1.3323614 eg4_time5=2.7537915 eg4_level1=1 eg4_level2=1 eg4_level3=1 eg4_level4=1 eg4_level5=1
<region>sample=../Sample/Wave41.wav lokey=57 hikey=57 pitch_keycenter=54 tune=36 loop_mode=loop_continuous loop_start=38205 loop_end=43072 pan=0 eg2_cutoff=6688 eg2_sustain=4 eg2_time1=0 eg2_time2=0 eg2_time3=0 eg2_time4=0 eg2_time5=0 eg2_level1=0 eg2_level2=1 eg2_level3=1 eg2_level4=1 eg2_level5=1 eg2_cutoff_curvecc131=202 eg2_cutoff_oncc131=9766.6031746 eg3_amplitude=100 eg3_sustain=4 eg3_time1=0 eg3_time2=0 eg3_time3=0.1792321 eg3_time4=1.2575817 eg3_time5=2.5992331 eg3_level1=0 eg3_level2=1 eg3_level3=1 eg3_level4=0 eg3_level5=0 amplitude_cc16=100 ampeg_attack=0 ampeg_release=2.5992331 eg4_time1=0 eg4_time2=0 eg4_time3=0.1792321 eg4_time4=1.2575817 eg4_time5=2.5992331 eg4_level1=1 eg4_level2=1 eg4_level3=1 eg4_level4=1 eg4_level5=1
<region>sample=../Sample/Wave41.wav lokey=58 hikey=58 pitch_keycenter=54 tune=36 loop_mode=loop_continuous loop_start=38205 loop_end=43072 pan=0 eg2_cutoff=6688 eg2_sustain=4 eg2_time1=0 eg2_time2=0 eg2_time3=0 eg2_time4=0 eg2_time5=0 eg2_level1=0 eg2_level2=1 eg2_level3=1 eg2_level4=1 eg2_level5=1 eg2_cutoff_curvecc131=202 eg2_cutoff_oncc131=9766.6031746 eg3_amplitude=100 eg3_sustain=4 eg3_time1=0 eg3_time2=0 eg3_time3=0.1691726 eg3_time4=1.186999 eg3_time5=2.4533493 eg3_level1=0 eg3_level2=1 eg3_level3=1 eg3_level4=0 eg3_level5=0 amplitude_cc16=100 ampeg_attack=0 ampeg_release=2.4533493 eg4_time1=0 eg4_time2=0 eg4_time3=0.1691726 eg4_time4=1.186999 eg4_time5=2.4533493 eg4_level1=1 eg4_level2=1 eg4_level3=1 eg4_level4=1 eg4_level5=1
<region>sample=../Sample/Wave41.wav lokey=59 hikey=59 pitch_keycenter=54 tune=36 loop_mode=loop_continuous loop_start=38205 loop_end=43072 pan=0 eg2_cutoff=6688 eg2_sustain=4 eg2_time1=0 eg2_time2=0 eg2_time3=0 eg2_time4=0 eg2_time5=0 eg2_level1=0 eg2_level2=1 eg2_level3=1 eg2_level4=1 eg2_level5=1 eg2_cutoff_curvecc131=202 eg2_cutoff_oncc131=9766.6031746 eg3_amplitude=100 eg3_sustain=4 eg3_time1=0 eg3_time2=0 eg3_time3=0.1596777 eg3_time4=1.1203779 eg3_time5=2.3156534 eg3_level1=0 eg3_level2=1 eg3_level3=1 eg3_level4=0 eg3_level5=0 amplitude_cc16=100 ampeg_attack=0 ampeg_release=2.3156534 eg4_time1=0 eg4_time2=0 eg4_time3=0.1596777 eg4_time4=1.1203779 eg4_time5=2.3156534 eg4_level1=1 eg4_level2=1 eg4_level3=1 eg4_level4=1 eg4_level5=1
<region>sample=../Sample/Wave42.wav lokey=60 hikey=60 pitch_keycenter=62 tune=0 loop_mode=loop_continuous loop_start=9614 loop_end=13892 pan=0 eg2_cutoff=6688 eg2_sustain=4 eg2_time1=0 eg2_time2=0 eg2_time3=0 eg2_time4=0 eg2_time5=0 eg2_level1=0 eg2_level2=1 eg2_level3=1 eg2_level4=1 eg2_level5=1 eg2_cutoff_curvecc131=202 eg2_cutoff_oncc131=9766.6031746 eg3_amplitude=100 eg3_sustain=4 eg3_time1=0 eg3_time2=0 eg3_time3=0.1507156 eg3_time4=1.0574959 eg3_time5=2.1856858 eg3_level1=0 eg3_level2=1 eg3_level3=1 eg3_level4=0 eg3_level5=0 amplitude_cc16=100 ampeg_attack=0 ampeg_release=2.1856858 eg4_time1=0 eg4_time2=0 eg4_time3=0.1507156 eg4_time4=1.0574959 eg4_time5=2.1856858 eg4_level1=1 eg4_level2=1 eg4_level3=1 eg4_level4=1 eg4_level5=1
<region>sample=../Sample/Wave42.wav lokey=61 hikey=61 pitch_keycenter=62 tune=0 loop_mode=loop_continuous loop_start=9614 loop_end=13892 pan=0 eg2_cutoff=6688 eg2_sustain=4 eg2_time1=0 eg2_time2=0 eg2_time3=0 eg2_time4=0 eg2_time5=0 eg2_level1=0 eg2_level2=1 eg2_level3=1 eg2_level4=1 eg2_level5=1 eg2_cutoff_curvecc131=202 eg2_cutoff_oncc131=9766.6031746 eg3_amplitude=100 eg3_sustain=4 eg3_time1=0 eg3_time2=0 eg3_time3=0.1422566 eg3_time4=0.9981432 eg3_time5=2.0630126 eg3_level1=0 eg3_level2=1 eg3_level3=1 eg3_level4=0 eg3_level5=0 amplitude_cc16=100 ampeg_attack=0 ampeg_release=2.0630126 eg4_time1=0 eg4_time2=0 eg4_time3=0.1422566 eg4_time4=0.9981432 eg4_time5=2.0630126 eg4_level1=1 eg4_level2=1 eg4_level3=1 eg4_level4=1 eg4_level5=1
<region>sample=../Sample/Wave42.wav lokey=62 hikey=62 pitch_keycenter=62 tune=0 loop_mode=loop_continuous loop_start=9614 loop_end=13892 pan=0 eg2_cutoff=6688 eg2_sustain=4 eg2_time1=0 eg2_time2=0 eg2_time3=0 eg2_time4=0 eg2_time5=0 eg2_level1=0 eg2_level2=1 eg2_level3=1 eg2_level4=1 eg2_level5=1 eg2_cutoff_curvecc131=202 eg2_cutoff_oncc131=9766.6031746 eg3_amplitude=100 eg3_sustain=4 eg3_time1=0 eg3_time2=0 eg3_time3=0.1342724 eg3_time4=0.9421217 eg3_time5=1.9472246 eg3_level1=0 eg3_level2=1 eg3_level3=1 eg3_level4=0 eg3_level5=0 amplitude_cc16=100 ampeg_attack=0 ampeg_release=1.9472246 eg4_time1=0 eg4_time2=0 eg4_time3=0.1342724 eg4_time4=0.9421217 eg4_time5=1.9472246 eg4_level1=1 eg4_level2=1 eg4_level3=1 eg4_level4=1 eg4_level5=1
<region>sample=../Sample/Wave42.wav lokey=63 hikey=63 pitch_keycenter=62 tune=0 loop_mode=loop_continuous loop_start=9614 loop_end=13892 pan=0 eg2_cutoff=6688 eg2_sustain=4 eg2_time1=0 eg2_time2=0 eg2_time3=0 eg2_time4=0 eg2_time5=0 eg2_level1=0 eg2_level2=1 eg2_level3=1 eg2_level4=1 eg2_level5=1 eg2_cutoff_curvecc131=202 eg2_cutoff_oncc131=9766.6031746 eg3_amplitude=100 eg3_sustain=4 eg3_time1=0 eg3_time2=0 eg3_time3=0.1267362 eg3_time4=0.8892445 eg3_time5=1.8379353 eg3_level1=0 eg3_level2=1 eg3_level3=1 eg3_level4=0 eg3_level5=0 amplitude_cc16=100 ampeg_attack=0 ampeg_release=1.8379353 eg4_time1=0 eg4_time2=0 eg4_time3=0.1267362 eg4_time4=0.8892445 eg4_time5=1.8379353 eg4_level1=1 eg4_level2=1 eg4_level3=1 eg4_level4=1 eg4_level5=1
<region>sample=../Sample/Wave42.wav lokey=64 hikey=64 pitch_keycenter=62 tune=0 loop_mode=loop_continuous loop_start=9614 loop_end=13892 pan=0 eg2_cutoff=6688 eg2_sustain=4 eg2_time1=0 eg2_time2=0 eg2_time3=0 eg2_time4=0 eg2_time5=0 eg2_level1=0 eg2_level2=1 eg2_level3=1 eg2_level4=1 eg2_level5=1 eg2_cutoff_curvecc131=202 eg2_cutoff_oncc131=9766.6031746 eg3_amplitude=100 eg3_sustain=4 eg3_time1=0 eg3_time2=0 eg3_time3=0.1196231 eg3_time4=0.8393351 eg3_time5=1.7347799 eg3_level1=0 eg3_level2=1 eg3_level3=1 eg3_level4=0 eg3_level5=0 amplitude_cc16=100 ampeg_attack=0 ampeg_release=1.7347799 eg4_time1=0 eg4_time2=0 eg4_time3=0.1196231 eg4_time4=0.8393351 eg4_time5=1.7347799 eg4_level1=1 eg4_level2=1 eg4_level3=1 eg4_level4=1 eg4_level5=1
<region>sample=../Sample/Wave42.wav lokey=65 hikey=65 pitch_keycenter=62 tune=0 loop_mode=loop_continuous loop_start=9614 loop_end=13892 pan=0 eg2_cutoff=6688 eg2_sustain=4 eg2_time1=0 eg2_time2=0 eg2_time3=0 eg2_time4=0 eg2_time5=0 eg2_level1=0 eg2_level2=1 eg2_level3=1 eg2_level4=1 eg2_level5=1 eg2_cutoff_curvecc131=202 eg2_cutoff_oncc131=9766.6031746 eg3_amplitude=100 eg3_sustain=4 eg3_time1=0 eg3_time2=0 eg3_time3=0.1129092 eg3_time4=0.7922268 eg3_time5=1.6374142 eg3_level1=0 eg3_level2=1 eg3_level3=1 eg3_level4=0 eg3_level5=0 amplitude_cc16=100 ampeg_attack=0 ampeg_release=1.6374142 eg4_time1=0 eg4_time2=0 eg4_time3=0.1129092 eg4_time4=0.7922268 eg4_time5=1.6374142 eg4_level1=1 eg4_level2=1 eg4_level3=1 eg4_level4=1 eg4_level5=1
<region>sample=../Sample/Wave1601.wav lokey=66 hikey=66 pitch_keycenter=62 tune=0 loop_mode=loop_continuous loop_start=9614 loop_end=13892 pan=0 eg2_cutoff=6688 eg2_sustain=4 eg2_time1=0 eg2_time2=0 eg2_time3=0 eg2_time4=0 eg2_time5=0 eg2_level1=0 eg2_level2=1 eg2_level3=1 eg2_level4=1 eg2_level5=1 eg2_cutoff_curvecc131=202 eg2_cutoff_oncc131=9766.6031746 eg3_amplitude=100 eg3_sustain=4 eg3_time1=0 eg3_time2=0 eg3_time3=0.1065721 eg3_time4=0.7477625 eg3_time5=1.5455132 eg3_level1=0 eg3_level2=1 eg3_level3=1 eg3_level4=0 eg3_level5=0 amplitude_cc16=100 ampeg_attack=0 ampeg_release=1.5455132 eg4_time1=0 eg4_time2=0 eg4_time3=0.1065721 eg4_time4=0.7477625 eg4_time5=1.5455132 eg4_level1=1 eg4_level2=1 eg4_level3=1 eg4_level4=1 eg4_level5=1
<region>sample=../Sample/Wave1601.wav lokey=67 hikey=67 pitch_keycenter=62 tune=0 loop_mode=loop_continuous loop_start=9614 loop_end=13892 pan=0 eg2_cutoff=6688 eg2_sustain=4 eg2_time1=0 eg2_time2=0 eg2_time3=0 eg2_time4=0 eg2_time5=0 eg2_level1=0 eg2_level2=1 eg2_level3=1 eg2_level4=1 eg2_level5=1 eg2_cutoff_curvecc131=202 eg2_cutoff_oncc131=9766.6031746 eg3_amplitude=100 eg3_sustain=4 eg3_time1=0 eg3_time2=0 eg3_time3=0.1005906 eg3_time4=0.7057938 eg3_time5=1.4587702 eg3_level1=0 eg3_level2=1 eg3_level3=1 eg3_level4=0 eg3_level5=0 amplitude_cc16=100 ampeg_attack=0 ampeg_release=1.4587702 eg4_time1=0 eg4_time2=0 eg4_time3=0.1005906 eg4_time4=0.7057938 eg4_time5=1.4587702 eg4_level1=1 eg4_level2=1 eg4_level3=1 eg4_level4=1 eg4_level5=1
<region>sample=../Sample/Wave1601.wav lokey=68 hikey=68 pitch_keycenter=62 tune=0 loop_mode=loop_continuous loop_start=9614 loop_end=13892 pan=0 eg2_cutoff=6688 eg2_sustain=4 eg2_time1=0 eg2_time2=0 eg2_time3=0 eg2_time4=0 eg2_time5=0 eg2_level1=0 eg2_level2=1 eg2_level3=1 eg2_level4=1 eg2_level5=1 eg2_cutoff_curvecc131=202 eg2_cutoff_oncc131=9766.6031746 eg3_amplitude=100 eg3_sustain=4 eg3_time1=0 eg3_time2=0 eg3_time3=0.0949449 eg3_time4=0.6661807 eg3_time5=1.3768958 eg3_level1=0 eg3_level2=1 eg3_level3=1 eg3_level4=0 eg3_level5=0 amplitude_cc16=100 ampeg_attack=0 ampeg_release=1.3768958 eg4_time1=0 eg4_time2=0 eg4_time3=0.0949449 eg4_time4=0.6661807 eg4_time5=1.3768958 eg4_level1=1 eg4_level2=1 eg4_level3=1 eg4_level4=1 eg4_level5=1
<region>sample=../Sample/Wave1601.wav lokey=69 hikey=69 pitch_keycenter=62 tune=0 loop_mode=loop_continuous loop_start=9614 loop_end=13892 pan=0 eg2_cutoff=6688 eg2_sustain=4 eg2_time1=0 eg2_time2=0 eg2_time3=0 eg2_time4=0 eg2_time5=0 eg2_level1=0 eg2_level2=1 eg2_level3=1 eg2_level4=1 eg2_level5=1 eg2_cutoff_curvecc131=202 eg2_cutoff_oncc131=9766.6031746 eg3_amplitude=100 eg3_sustain=4 eg3_time1=0 eg3_time2=0 eg3_time3=0.0896161 eg3_time4=0.6287908 eg3_time5=1.2996165 eg3_level1=0 eg3_level2=1 eg3_level3=1 eg3_level4=0 eg3_level5=0 amplitude_cc16=100 ampeg_attack=0 ampeg_release=1.2996165 eg4_time1=0 eg4_time2=0 eg4_time3=0.0896161 eg4_time4=0.6287908 eg4_time5=1.2996165 eg4_level1=1 eg4_level2=1 eg4_level3=1 eg4_level4=1 eg4_level5=1
<region>sample=../Sample/Wave1601.wav lokey=70 hikey=70 pitch_keycenter=62 tune=0 loop_mode=loop_continuous loop_start=9614 loop_end=13892 pan=0 eg2_cutoff=6688 eg2_sustain=4 eg2_time1=0 eg2_time2=0 eg2_time3=0 eg2_time4=0 eg2_time5=0 eg2_level1=0 eg2_level2=1 eg2_level3=1 eg2_level4=1 eg2_level5=1 eg2_cutoff_curvecc131=202 eg2_cutoff_oncc131=9766.6031746 eg3_amplitude=100 eg3_sustain=4 eg3_time1=0 eg3_time2=0 eg3_time3=0.0845863 eg3_time4=0.5934995 eg3_time5=1.2266747 eg3_level1=0 eg3_level2=1 eg3_level3=1 eg3_level4=0 eg3_level5=0 amplitude_cc16=100 ampeg_attack=0 ampeg_release=1.2266747 eg4_time1=0 eg4_time2=0 eg4_time3=0.0845863 eg4_time4=0.5934995 eg4_time5=1.2266747 eg4_level1=1 eg4_level2=1 eg4_level3=1 eg4_level4=1 eg4_level5=1
<region>sample=../Sample/Wave1601.wav lokey=71 hikey=71 pitch_keycenter=62 tune=0 loop_mode=loop_continuous loop_start=9614 loop_end=13892 pan=0 eg2_cutoff=6688 eg2_sustain=4 eg2_time1=0 eg2_time2=0 eg2_time3=0 eg2_time4=0 eg2_time5=0 eg2_level1=0 eg2_level2=1 eg2_level3=1 eg2_level4=1 eg2_level5=1 eg2_cutoff_curvecc131=202 eg2_cutoff_oncc131=9766.6031746 eg3_amplitude=100 eg3_sustain=4 eg3_time1=0 eg3_time2=0 eg3_time3=0.0798388 eg3_time4=0.5601889 eg3_time5=1.1578267 eg3_level1=0 eg3_level2=1 eg3_level3=1 eg3_level4=0 eg3_level5=0 amplitude_cc16=100 ampeg_attack=0 ampeg_release=1.1578267 eg4_time1=0 eg4_time2=0 eg4_time3=0.0798388 eg4_time4=0.5601889 eg4_time5=1.1578267 eg4_level1=1 eg4_level2=1 eg4_level3=1 eg4_level4=1 eg4_level5=1
<region>sample=../Sample/Wave1602.wav lokey=72 hikey=72 pitch_keycenter=62 tune=0 loop_mode=loop_continuous loop_start=9614 loop_end=13892 pan=0 eg2_cutoff=6688 eg2_sustain=4 eg2_time1=0 eg2_time2=0 eg2_time3=0 eg2_time4=0 eg2_time5=0 eg2_level1=0 eg2_level2=1 eg2_level3=1 eg2_level4=1 eg2_level5=1 eg2_cutoff_curvecc131=202 eg2_cutoff_oncc131=9766.6031746 eg3_amplitude=100 eg3_sustain=4 eg3_time1=0 eg3_time2=0 eg3_time3=0.0753578 eg3_time4=0.528748 eg3_time5=1.0928429 eg3_level1=0 eg3_level2=1 eg3_level3=1 eg3_level4=0 eg3_level5=0 amplitude_cc16=100 ampeg_attack=0 ampeg_release=1.0928429 eg4_time1=0 eg4_time2=0 eg4_time3=0.0753578 eg4_time4=0.528748 eg4_time5=1.0928429 eg4_level1=1 eg4_level2=1 eg4_level3=1 eg4_level4=1 eg4_level5=1
<region>sample=../Sample/Wave1602.wav lokey=73 hikey=73 pitch_keycenter=62 tune=0 loop_mode=loop_continuous loop_start=9614 loop_end=13892 pan=0 eg2_cutoff=6688 eg2_sustain=4 eg2_time1=0 eg2_time2=0 eg2_time3=0 eg2_time4=0 eg2_time5=0 eg2_level1=0 eg2_level2=1 eg2_level3=1 eg2_level4=1 eg2_level5=1 eg2_cutoff_curvecc131=202 eg2_cutoff_oncc131=9766.6031746 eg3_amplitude=100 eg3_sustain=4 eg3_time1=0 eg3_time2=0 eg3_time3=0.0711283 eg3_time4=0.4990716 eg3_time5=1.0315063 eg3_level1=0 eg3_level2=1 eg3_level3=1 eg3_level4=0 eg3_level5=0 amplitude_cc16=100 ampeg_attack=0 ampeg_release=1.0315063 eg4_time1=0 eg4_time2=0 eg4_time3=0.0711283 eg4_time4=0.4990716 eg4_time5=1.0315063 eg4_level1=1 eg4_level2=1 eg4_level3=1 eg4_level4=1 eg4_level5=1
<region>sample=../Sample/Wave1602.wav lokey=74 hikey=74 pitch_keycenter=62 tune=0 loop_mode=loop_continuous loop_start=9614 loop_end=13892 pan=0 eg2_cutoff=6688 eg2_sustain=4 eg2_time1=0 eg2_time2=0 eg2_time3=0 eg2_time4=0 eg2_time5=0 eg2_level1=0 eg2_level2=1 eg2_level3=1 eg2_level4=1 eg2_level5=1 eg2_cutoff_curvecc131=202 eg2_cutoff_oncc131=9766.6031746 eg3_amplitude=100 eg3_sustain=4 eg3_time1=0 eg3_time2=0 eg3_time3=0.0671362 eg3_time4=0.4710609 eg3_time5=0.9736123 eg3_level1=0 eg3_level2=1 eg3_level3=1 eg3_level4=0 eg3_level5=0 amplitude_cc16=100 ampeg_attack=0 ampeg_release=0.9736123 eg4_time1=0 eg4_time2=0 eg4_time3=0.0671362 eg4_time4=0.4710609 eg4_time5=0.9736123 eg4_level1=1 eg4_level2=1 eg4_level3=1 eg4_level4=1 eg4_level5=1
<region>sample=../Sample/Wave1602.wav lokey=75 hikey=75 pitch_keycenter=62 tune=0 loop_mode=loop_continuous loop_start=9614 loop_end=13892 pan=0 eg2_cutoff=6688 eg2_sustain=4 eg2_time1=0 eg2_time2=0 eg2_time3=0 eg2_time4=0 eg2_time5=0 eg2_level1=0 eg2_level2=1 eg2_level3=1 eg2_level4=1 eg2_level5=1 eg2_cutoff_curvecc131=202 eg2_cutoff_oncc131=9766.6031746 eg3_amplitude=100 eg3_sustain=4 eg3_time1=0 eg3_time2=0 eg3_time3=0.0633681 eg3_time4=0.4446223 eg3_time5=0.9189677 eg3_level1=0 eg3_level2=1 eg3_level3=1 eg3_level4=0 eg3_level5=0 amplitude_cc16=100 ampeg_attack=0 ampeg_release=0.9189677 eg4_time1=0 eg4_time2=0 eg4_time3=0.0633681 eg4_time4=0.4446223 eg4_time5=0.9189677 eg4_level1=1 eg4_level2=1 eg4_level3=1 eg4_level4=1 eg4_level5=1
<region>sample=../Sample/Wave1602.wav lokey=76 hikey=76 pitch_keycenter=62 tune=0 loop_mode=loop_continuous loop_start=9614 loop_end=13892 pan=0 eg2_cutoff=6688 eg2_sustain=4 eg2_time1=0 eg2_time2=0 eg2_time3=0 eg2_time4=0 eg2_time5=0 eg2_level1=0 eg2_level2=1 eg2_level3=1 eg2_level4=1 eg2_level5=1 eg2_cutoff_curvecc131=202 eg2_cutoff_oncc131=9766.6031746 eg3_amplitude=100 eg3_sustain=4 eg3_time1=0 eg3_time2=0 eg3_time3=0.0598115 eg3_time4=0.4196675 eg3_time5=0.86739 eg3_level1=0 eg3_level2=1 eg3_level3=1 eg3_level4=0 eg3_level5=0 amplitude_cc16=100 ampeg_attack=0 ampeg_release=0.86739 eg4_time1=0 eg4_time2=0 eg4_time3=0.0598115 eg4_time4=0.4196675 eg4_time5=0.86739 eg4_level1=1 eg4_level2=1 eg4_level3=1 eg4_level4=1 eg4_level5=1
<region>sample=../Sample/Wave1602.wav lokey=77 hikey=77 pitch_keycenter=62 tune=0 loop_mode=loop_continuous loop_start=9614 loop_end=13892 pan=0 eg2_cutoff=6688 eg2_sustain=4 eg2_time1=0 eg2_time2=0 eg2_time3=0 eg2_time4=0 eg2_time5=0 eg2_level1=0 eg2_level2=1 eg2_level3=1 eg2_level4=1 eg2_level5=1 eg2_cutoff_curvecc131=202 eg2_cutoff_oncc131=9766.6031746 eg3_amplitude=100 eg3_sustain=4 eg3_time1=0 eg3_time2=0 eg3_time3=0.0564546 eg3_time4=0.3961134 eg3_time5=0.8187071 eg3_level1=0 eg3_level2=1 eg3_level3=1 eg3_level4=0 eg3_level5=0 amplitude_cc16=100 ampeg_attack=0 ampeg_release=0.8187071 eg4_time1=0 eg4_time2=0 eg4_time3=0.0564546 eg4_time4=0.3961134 eg4_time5=0.8187071 eg4_level1=1 eg4_level2=1 eg4_level3=1 eg4_level4=1 eg4_level5=1
<region>sample=../Sample/Wave1602.wav lokey=78 hikey=78 pitch_keycenter=62 tune=0 loop_mode=loop_continuous loop_start=9614 loop_end=13892 pan=0 eg2_cutoff=6688 eg2_sustain=4 eg2_time1=0 eg2_time2=0 eg2_time3=0 eg2_time4=0 eg2_time5=0 eg2_level1=0 eg2_level2=1 eg2_level3=1 eg2_level4=1 eg2_level5=1 eg2_cutoff_curvecc131=202 eg2_cutoff_oncc131=9766.6031746 eg3_amplitude=100 eg3_sustain=4 eg3_time1=0 eg3_time2=0 eg3_time3=0.053286 eg3_time4=0.3738813 eg3_time5=0.7727566 eg3_level1=0 eg3_level2=1 eg3_level3=1 eg3_level4=0 eg3_level5=0 amplitude_cc16=100 ampeg_attack=0 ampeg_release=0.7727566 eg4_time1=0 eg4_time2=0 eg4_time3=0.053286 eg4_time4=0.3738813 eg4_time5=0.7727566 eg4_level1=1 eg4_level2=1 eg4_level3=1 eg4_level4=1 eg4_level5=1
<region>sample=../Sample/Wave1602.wav lokey=79 hikey=79 pitch_keycenter=62 tune=0 loop_mode=loop_continuous loop_start=9614 loop_end=13892 pan=0 eg2_cutoff=6688 eg2_sustain=4 eg2_time1=0 eg2_time2=0 eg2_time3=0 eg2_time4=0 eg2_time5=0 eg2_level1=0 eg2_level2=1 eg2_level3=1 eg2_level4=1 eg2_level5=1 eg2_cutoff_curvecc131=202 eg2_cutoff_oncc131=9766.6031746 eg3_amplitude=100 eg3_sustain=4 eg3_time1=0 eg3_time2=0 eg3_time3=0.0502953 eg3_time4=0.3528969 eg3_time5=0.7293851 eg3_level1=0 eg3_level2=1 eg3_level3=1 eg3_level4=0 eg3_level5=0 amplitude_cc16=100 ampeg_attack=0 ampeg_release=0.7293851 eg4_time1=0 eg4_time2=0 eg4_time3=0.0502953 eg4_time4=0.3528969 eg4_time5=0.7293851 eg4_level1=1 eg4_level2=1 eg4_level3=1 eg4_level4=1 eg4_level5=1
<region>sample=../Sample/Wave1602.wav lokey=80 hikey=80 pitch_keycenter=62 tune=0 loop_mode=loop_continuous loop_start=9614 loop_end=13892 pan=0 eg2_cutoff=6688 eg2_sustain=4 eg2_time1=0 eg2_time2=0 eg2_time3=0 eg2_time4=0 eg2_time5=0 eg2_level1=0 eg2_level2=1 eg2_level3=1 eg2_level4=1 eg2_level5=1 eg2_cutoff_curvecc131=202 eg2_cutoff_oncc131=9766.6031746 eg3_amplitude=100 eg3_sustain=4 eg3_time1=0 eg3_time2=0 eg3_time3=0.0474725 eg3_time4=0.3330903 eg3_time5=0.6884479 eg3_level1=0 eg3_level2=1 eg3_level3=1 eg3_level4=0 eg3_level5=0 amplitude_cc16=100 ampeg_attack=0 ampeg_release=0.6884479 eg4_time1=0 eg4_time2=0 eg4_time3=0.0474725 eg4_time4=0.3330903 eg4_time5=0.6884479 eg4_level1=1 eg4_level2=1 eg4_level3=1 eg4_level4=1 eg4_level5=1
<region>sample=../Sample/Wave1602.wav lokey=81 hikey=81 pitch_keycenter=62 tune=0 loop_mode=loop_continuous loop_start=9614 loop_end=13892 pan=0 eg2_cutoff=6688 eg2_sustain=4 eg2_time1=0 eg2_time2=0 eg2_time3=0 eg2_time4=0 eg2_time5=0 eg2_level1=0 eg2_level2=1 eg2_level3=1 eg2_level4=1 eg2_level5=1 eg2_cutoff_curvecc131=202 eg2_cutoff_oncc131=9766.6031746 eg3_amplitude=100 eg3_sustain=4 eg3_time1=0 eg3_time2=0 eg3_time3=0.044808 eg3_time4=0.3143954 eg3_time5=0.6498083 eg3_level1=0 eg3_level2=1 eg3_level3=1 eg3_level4=0 eg3_level5=0 amplitude_cc16=100 ampeg_attack=0 ampeg_release=0.6498083 eg4_time1=0 eg4_time2=0 eg4_time3=0.044808 eg4_time4=0.3143954 eg4_time5=0.6498083 eg4_level1=1 eg4_level2=1 eg4_level3=1 eg4_level4=1 eg4_level5=1
<region>sample=../Sample/Wave1602.wav lokey=82 hikey=82 pitch_keycenter=62 tune=0 loop_mode=loop_continuous loop_start=9614 loop_end=13892 pan=0 eg2_cutoff=6688 eg2_sustain=4 eg2_time1=0 eg2_time2=0 eg2_time3=0 eg2_time4=0 eg2_time5=0 eg2_level1=0 eg2_level2=1 eg2_level3=1 eg2_level4=1 eg2_level5=1 eg2_cutoff_curvecc131=202 eg2_cutoff_oncc131=9766.6031746 eg3_amplitude=100 eg3_sustain=4 eg3_time1=0 eg3_time2=0 eg3_time3=0.0422931 eg3_time4=0.2967498 eg3_time5=0.6133373 eg3_level1=0 eg3_level2=1 eg3_level3=1 eg3_level4=0 eg3_level5=0 amplitude_cc16=100 ampeg_attack=0 ampeg_release=0.6133373 eg4_time1=0 eg4_time2=0 eg4_time3=0.0422931 eg4_time4=0.2967498 eg4_time5=0.6133373 eg4_level1=1 eg4_level2=1 eg4_level3=1 eg4_level4=1 eg4_level5=1
<region>sample=../Sample/Wave1602.wav lokey=83 hikey=83 pitch_keycenter=62 tune=0 loop_mode=loop_continuous loop_start=9614 loop_end=13892 pan=0 eg2_cutoff=6688 eg2_sustain=4 eg2_time1=0 eg2_time2=0 eg2_time3=0 eg2_time4=0 eg2_time5=0 eg2_level1=0 eg2_level2=1 eg2_level3=1 eg2_level4=1 eg2_level5=1 eg2_cutoff_curvecc131=202 eg2_cutoff_oncc131=9766.6031746 eg3_amplitude=100 eg3_sustain=4 eg3_time1=0 eg3_time2=0 eg3_time3=0.0399194 eg3_time4=0.2800945 eg3_time5=0.5789134 eg3_level1=0 eg3_level2=1 eg3_level3=1 eg3_level4=0 eg3_level5=0 amplitude_cc16=100 ampeg_attack=0 ampeg_release=0.5789134 eg4_time1=0 eg4_time2=0 eg4_time3=0.0399194 eg4_time4=0.2800945 eg4_time5=0.5789134 eg4_level1=1 eg4_level2=1 eg4_level3=1 eg4_level4=1 eg4_level5=1
<region>sample=../Sample/Wave1602.wav lokey=84 hikey=84 pitch_keycenter=62 tune=0 loop_mode=loop_continuous loop_start=9614 loop_end=13892 pan=0 eg2_cutoff=6688 eg2_sustain=4 eg2_time1=0 eg2_time2=0 eg2_time3=0 eg2_time4=0 eg2_time5=0 eg2_level1=0 eg2_level2=1 eg2_level3=1 eg2_level4=1 eg2_level5=1 eg2_cutoff_curvecc131=202 eg2_cutoff_oncc131=9766.6031746 eg3_amplitude=100 eg3_sustain=4 eg3_time1=0 eg3_time2=0 eg3_time3=0.0376789 eg3_time4=0.264374 eg3_time5=0.5464214 eg3_level1=0 eg3_level2=1 eg3_level3=1 eg3_level4=0 eg3_level5=0 amplitude_cc16=100 ampeg_attack=0 ampeg_release=0.5464214 eg4_time1=0 eg4_time2=0 eg4_time3=0.0376789 eg4_time4=0.264374 eg4_time5=0.5464214 eg4_level1=1 eg4_level2=1 eg4_level3=1 eg4_level4=1 eg4_level5=1
<region>sample=../Sample/Wave1602.wav lokey=85 hikey=85 pitch_keycenter=62 tune=0 loop_mode=loop_continuous loop_start=9614 loop_end=13892 pan=0 eg2_cutoff=6688 eg2_sustain=4 eg2_time1=0 eg2_time2=0 eg2_time3=0 eg2_time4=0 eg2_time5=0 eg2_level1=0 eg2_level2=1 eg2_level3=1 eg2_level4=1 eg2_level5=1 eg2_cutoff_curvecc131=202 eg2_cutoff_oncc131=9766.6031746 eg3_amplitude=100 eg3_sustain=4 eg3_time1=0 eg3_time2=0 eg3_time3=0.0355642 eg3_time4=0.2495358 eg3_time5=0.5157532 eg3_level1=0 eg3_level2=1 eg3_level3=1 eg3_level4=0 eg3_level5=0 amplitude_cc16=100 ampeg_attack=0 ampeg_release=0.5157532 eg4_time1=0 eg4_time2=0 eg4_time3=0.0355642 eg4_time4=0.2495358 eg4_time5=0.5157532 eg4_level1=1 eg4_level2=1 eg4_level3=1 eg4_level4=1 eg4_level5=1
<region>sample=../Sample/Wave1602.wav lokey=86 hikey=86 pitch_keycenter=62 tune=0 loop_mode=loop_continuous loop_start=9614 loop_end=13892 pan=0 eg2_cutoff=6688 eg2_sustain=4 eg2_time1=0 eg2_time2=0 eg2_time3=0 eg2_time4=0 eg2_time5=0 eg2_level1=0 eg2_level2=1 eg2_level3=1 eg2_level4=1 eg2_level5=1 eg2_cutoff_curvecc131=202 eg2_cutoff_oncc131=9766.6031746 eg3_amplitude=100 eg3_sustain=4 eg3_time1=0 eg3_time2=0 eg3_time3=0.0335681 eg3_time4=0.2355304 eg3_time5=0.4868062 eg3_level1=0 eg3_level2=1 eg3_level3=1 eg3_level4=0 eg3_level5=0 amplitude_cc16=100 ampeg_attack=0 ampeg_release=0.4868062 eg4_time1=0 eg4_time2=0 eg4_time3=0.0335681 eg4_time4=0.2355304 eg4_time5=0.4868062 eg4_level1=1 eg4_level2=1 eg4_level3=1 eg4_level4=1 eg4_level5=1
<region>sample=../Sample/Wave1602.wav lokey=87 hikey=87 pitch_keycenter=62 tune=0 loop_mode=loop_continuous loop_start=9614 loop_end=13892 pan=0 eg2_cutoff=6688 eg2_sustain=4 eg2_time1=0 eg2_time2=0 eg2_time3=0 eg2_time4=0 eg2_time5=0 eg2_level1=0 eg2_level2=1 eg2_level3=1 eg2_level4=1 eg2_level5=1 eg2_cutoff_curvecc131=202 eg2_cutoff_oncc131=9766.6031746 eg3_amplitude=100 eg3_sustain=4 eg3_time1=0 eg3_time2=0 eg3_time3=0.0316841 eg3_time4=0.2223111 eg3_time5=0.4594838 eg3_level1=0 eg3_level2=1 eg3_level3=1 eg3_level4=0 eg3_level5=0 amplitude_cc16=100 ampeg_attack=0 ampeg_release=0.4594838 eg4_time1=0 eg4_time2=0 eg4_time3=0.0316841 eg4_time4=0.2223111 eg4_time5=0.4594838 eg4_level1=1 eg4_level2=1 eg4_level3=1 eg4_level4=1 eg4_level5=1
<region>sample=../Sample/Wave1602.wav lokey=88 hikey=88 pitch_keycenter=62 tune=0 loop_mode=loop_continuous loop_start=9614 loop_end=13892 pan=0 eg2_cutoff=6688 eg2_sustain=4 eg2_time1=0 eg2_time2=0 eg2_time3=0 eg2_time4=0 eg2_time5=0 eg2_level1=0 eg2_level2=1 eg2_level3=1 eg2_level4=1 eg2_level5=1 eg2_cutoff_curvecc131=202 eg2_cutoff_oncc131=9766.6031746 eg3_amplitude=100 eg3_sustain=4 eg3_time1=0 eg3_time2=0 eg3_time3=0.0299058 eg3_time4=0.2098338 eg3_time5=0.433695 eg3_level1=0 eg3_level2=1 eg3_level3=1 eg3_level4=0 eg3_level5=0 amplitude_cc16=100 ampeg_attack=0 ampeg_release=0.433695 eg4_time1=0 eg4_time2=0 eg4_time3=0.0299058 eg4_time4=0.2098338 eg4_time5=0.433695 eg4_level1=1 eg4_level2=1 eg4_level3=1 eg4_level4=1 eg4_level5=1
<region>sample=../Sample/Wave1602.wav lokey=89 hikey=89 pitch_keycenter=62 tune=0 loop_mode=loop_continuous loop_start=9614 loop_end=13892 pan=0 eg2_cutoff=6688 eg2_sustain=4 eg2_time1=0 eg2_time2=0 eg2_time3=0 eg2_time4=0 eg2_time5=0 eg2_level1=0 eg2_level2=1 eg2_level3=1 eg2_level4=1 eg2_level5=1 eg2_cutoff_curvecc131=202 eg2_cutoff_oncc131=9766.6031746 eg3_amplitude=100 eg3_sustain=4 eg3_time1=0 eg3_time2=0 eg3_time3=0.0282273 eg3_time4=0.1980567 eg3_time5=0.4093536 eg3_level1=0 eg3_level2=1 eg3_level3=1 eg3_level4=0 eg3_level5=0 amplitude_cc16=100 ampeg_attack=0 ampeg_release=0.4093536 eg4_time1=0 eg4_time2=0 eg4_time3=0.0282273 eg4_time4=0.1980567 eg4_time5=0.4093536 eg4_level1=1 eg4_level2=1 eg4_level3=1 eg4_level4=1 eg4_level5=1
<region>sample=../Sample/Wave1602.wav lokey=90 hikey=90 pitch_keycenter=62 tune=0 loop_mode=loop_continuous loop_start=9614 loop_end=13892 pan=0 eg2_cutoff=6688 eg2_sustain=4 eg2_time1=0 eg2_time2=0 eg2_time3=0 eg2_time4=0 eg2_time5=0 eg2_level1=0 eg2_level2=1 eg2_level3=1 eg2_level4=1 eg2_level5=1 eg2_cutoff_curvecc131=202 eg2_cutoff_oncc131=9766.6031746 eg3_amplitude=100 eg3_sustain=4 eg3_time1=0 eg3_time2=0 eg3_time3=0.026643 eg3_time4=0.1869406 eg3_time5=0.3863783 eg3_level1=0 eg3_level2=1 eg3_level3=1 eg3_level4=0 eg3_level5=0 amplitude_cc16=100 ampeg_attack=0 ampeg_release=0.3863783 eg4_time1=0 eg4_time2=0 eg4_time3=0.026643 eg4_time4=0.1869406 eg4_time5=0.3863783 eg4_level1=1 eg4_level2=1 eg4_level3=1 eg4_level4=1 eg4_level5=1
<region>sample=../Sample/Wave1602.wav lokey=91 hikey=91 pitch_keycenter=62 tune=0 loop_mode=loop_continuous loop_start=9614 loop_end=13892 pan=0 eg2_cutoff=6688 eg2_sustain=4 eg2_time1=0 eg2_time2=0 eg2_time3=0 eg2_time4=0 eg2_time5=0 eg2_level1=0 eg2_level2=1 eg2_level3=1 eg2_level4=1 eg2_level5=1 eg2_cutoff_curvecc131=202 eg2_cutoff_oncc131=9766.6031746 eg3_amplitude=100 eg3_sustain=4 eg3_time1=0 eg3_time2=0 eg3_time3=0.0251477 eg3_time4=0.1764485 eg3_time5=0.3646926 eg3_level1=0 eg3_level2=1 eg3_level3=1 eg3_level4=0 eg3_level5=0 amplitude_cc16=100 ampeg_attack=0 ampeg_release=0.3646926 eg4_time1=0 eg4_time2=0 eg4_time3=0.0251477 eg4_time4=0.1764485 eg4_time5=0.3646926 eg4_level1=1 eg4_level2=1 eg4_level3=1 eg4_level4=1 eg4_level5=1
<region>sample=../Sample/Wave1602.wav lokey=92 hikey=92 pitch_keycenter=62 tune=0 loop_mode=loop_continuous loop_start=9614 loop_end=13892 pan=0 eg2_cutoff=6688 eg2_sustain=4 eg2_time1=0 eg2_time2=0 eg2_time3=0 eg2_time4=0 eg2_time5=0 eg2_level1=0 eg2_level2=1 eg2_level3=1 eg2_level4=1 eg2_level5=1 eg2_cutoff_curvecc131=202 eg2_cutoff_oncc131=9766.6031746 eg3_amplitude=100 eg3_sustain=4 eg3_time1=0 eg3_time2=0 eg3_time3=0.0237362 eg3_time4=0.1665452 eg3_time5=0.3442239 eg3_level1=0 eg3_level2=1 eg3_level3=1 eg3_level4=0 eg3_level5=0 amplitude_cc16=100 ampeg_attack=0 ampeg_release=0.3442239 eg4_time1=0 eg4_time2=0 eg4_time3=0.0237362 eg4_time4=0.1665452 eg4_time5=0.3442239 eg4_level1=1 eg4_level2=1 eg4_level3=1 eg4_level4=1 eg4_level5=1
<region>sample=../Sample/Wave1602.wav lokey=93 hikey=93 pitch_keycenter=62 tune=0 loop_mode=loop_continuous loop_start=9614 loop_end=13892 pan=0 eg2_cutoff=6688 eg2_sustain=4 eg2_time1=0 eg2_time2=0 eg2_time3=0 eg2_time4=0 eg2_time5=0 eg2_level1=0 eg2_level2=1 eg2_level3=1 eg2_level4=1 eg2_level5=1 eg2_cutoff_curvecc131=202 eg2_cutoff_oncc131=9766.6031746 eg3_amplitude=100 eg3_sustain=4 eg3_time1=0 eg3_time2=0 eg3_time3=0.022404 eg3_time4=0.1571977 eg3_time5=0.3249041 eg3_level1=0 eg3_level2=1 eg3_level3=1 eg3_level4=0 eg3_level5=0 amplitude_cc16=100 ampeg_attack=0 ampeg_release=0.3249041 eg4_time1=0 eg4_time2=0 eg4_time3=0.022404 eg4_time4=0.1571977 eg4_time5=0.3249041 eg4_level1=1 eg4_level2=1 eg4_level3=1 eg4_level4=1 eg4_level5=1
<region>sample=../Sample/Wave1602.wav lokey=94 hikey=94 pitch_keycenter=62 tune=0 loop_mode=loop_continuous loop_start=9614 loop_end=13892 pan=0 eg2_cutoff=6688 eg2_sustain=4 eg2_time1=0 eg2_time2=0 eg2_time3=0 eg2_time4=0 eg2_time5=0 eg2_level1=0 eg2_level2=1 eg2_level3=1 eg2_level4=1 eg2_level5=1 eg2_cutoff_curvecc131=202 eg2_cutoff_oncc131=9766.6031746 eg3_amplitude=100 eg3_sustain=4 eg3_time1=0 eg3_time2=0 eg3_time3=0.0211466 eg3_time4=0.1483749 eg3_time5=0.3066687 eg3_level1=0 eg3_level2=1 eg3_level3=1 eg3_level4=0 eg3_level5=0 amplitude_cc16=100 ampeg_attack=0 ampeg_release=0.3066687 eg4_time1=0 eg4_time2=0 eg4_time3=0.0211466 eg4_time4=0.1483749 eg4_time5=0.3066687 eg4_level1=1 eg4_level2=1 eg4_level3=1 eg4_level4=1 eg4_level5=1
<region>sample=../Sample/Wave1602.wav lokey=95 hikey=95 pitch_keycenter=62 tune=0 loop_mode=loop_continuous loop_start=9614 loop_end=13892 pan=0 eg2_cutoff=6688 eg2_sustain=4 eg2_time1=0 eg2_time2=0 eg2_time3=0 eg2_time4=0 eg2_time5=0 eg2_level1=0 eg2_level2=1 eg2_level3=1 eg2_level4=1 eg2_level5=1 eg2_cutoff_curvecc131=202 eg2_cutoff_oncc131=9766.6031746 eg3_amplitude=100 eg3_sustain=4 eg3_time1=0 eg3_time2=0 eg3_time3=0.0199597 eg3_time4=0.1400472 eg3_time5=0.2894567 eg3_level1=0 eg3_level2=1 eg3_level3=1 eg3_level4=0 eg3_level5=0 amplitude_cc16=100 ampeg_attack=0 ampeg_release=0.2894567 eg4_time1=0 eg4_time2=0 eg4_time3=0.0199597 eg4_time4=0.1400472 eg4_time5=0.2894567 eg4_level1=1 eg4_level2=1 eg4_level3=1 eg4_level4=1 eg4_level5=1
<region>sample=../Sample/Wave1602.wav lokey=96 hikey=96 pitch_keycenter=62 tune=0 loop_mode=loop_continuous loop_start=9614 loop_end=13892 pan=0 eg2_cutoff=6688 eg2_sustain=4 eg2_time1=0 eg2_time2=0 eg2_time3=0 eg2_time4=0 eg2_time5=0 eg2_level1=0 eg2_level2=1 eg2_level3=1 eg2_level4=1 eg2_level5=1 eg2_cutoff_curvecc131=202 eg2_cutoff_oncc131=9766.6031746 eg3_amplitude=100 eg3_sustain=4 eg3_time1=0 eg3_time2=0 eg3_time3=0.0188395 eg3_time4=0.132187 eg3_time5=0.2732107 eg3_level1=0 eg3_level2=1 eg3_level3=1 eg3_level4=0 eg3_level5=0 amplitude_cc16=100 ampeg_attack=0 ampeg_release=0.2732107 eg4_time1=0 eg4_time2=0 eg4_time3=0.0188395 eg4_time4=0.132187 eg4_time5=0.2732107 eg4_level1=1 eg4_level2=1 eg4_level3=1 eg4_level4=1 eg4_level5=1
<region>sample=../Sample/Wave1602.wav lokey=97 hikey=97 pitch_keycenter=62 tune=0 loop_mode=loop_continuous loop_start=9614 loop_end=13892 pan=0 eg2_cutoff=6688 eg2_sustain=4 eg2_time1=0 eg2_time2=0 eg2_time3=0 eg2_time4=0 eg2_time5=0 eg2_level1=0 eg2_level2=1 eg2_level3=1 eg2_level4=1 eg2_level5=1 eg2_cutoff_curvecc131=202 eg2_cutoff_oncc131=9766.6031746 eg3_amplitude=100 eg3_sustain=4 eg3_time1=0 eg3_time2=0 eg3_time3=0.0177821 eg3_time4=0.1247679 eg3_time5=0.2578766 eg3_level1=0 eg3_level2=1 eg3_level3=1 eg3_level4=0 eg3_level5=0 amplitude_cc16=100 ampeg_attack=0 ampeg_release=0.2578766 eg4_time1=0 eg4_time2=0 eg4_time3=0.0177821 eg4_time4=0.1247679 eg4_time5=0.2578766 eg4_level1=1 eg4_level2=1 eg4_level3=1 eg4_level4=1 eg4_level5=1
<region>sample=../Sample/Wave1602.wav lokey=98 hikey=98 pitch_keycenter=62 tune=0 loop_mode=loop_continuous loop_start=9614 loop_end=13892 pan=0 eg2_cutoff=6688 eg2_sustain=4 eg2_time1=0 eg2_time2=0 eg2_time3=0 eg2_time4=0 eg2_time5=0 eg2_level1=0 eg2_level2=1 eg2_level3=1 eg2_level4=1 eg2_level5=1 eg2_cutoff_curvecc131=202 eg2_cutoff_oncc131=9766.6031746 eg3_amplitude=100 eg3_sustain=4 eg3_time1=0 eg3_time2=0 eg3_time3=0.016784 eg3_time4=0.1177652 eg3_time5=0.2434031 eg3_level1=0 eg3_level2=1 eg3_level3=1 eg3_level4=0 eg3_level5=0 amplitude_cc16=100 ampeg_attack=0 ampeg_release=0.2434031 eg4_time1=0 eg4_time2=0 eg4_time3=0.016784 eg4_time4=0.1177652 eg4_time5=0.2434031 eg4_level1=1 eg4_level2=1 eg4_level3=1 eg4_level4=1 eg4_level5=1
<region>sample=../Sample/Wave1602.wav lokey=99 hikey=99 pitch_keycenter=62 tune=0 loop_mode=loop_continuous loop_start=9614 loop_end=13892 pan=0 eg2_cutoff=6688 eg2_sustain=4 eg2_time1=0 eg2_time2=0 eg2_time3=0 eg2_time4=0 eg2_time5=0 eg2_level1=0 eg2_level2=1 eg2_level3=1 eg2_level4=1 eg2_level5=1 eg2_cutoff_curvecc131=202 eg2_cutoff_oncc131=9766.6031746 eg3_amplitude=100 eg3_sustain=4 eg3_time1=0 eg3_time2=0 eg3_time3=0.015842 eg3_time4=0.1111556 eg3_time5=0.2297419 eg3_level1=0 eg3_level2=1 eg3_level3=1 eg3_level4=0 eg3_level5=0 amplitude_cc16=100 ampeg_attack=0 ampeg_release=0.2297419 eg4_time1=0 eg4_time2=0 eg4_time3=0.015842 eg4_time4=0.1111556 eg4_time5=0.2297419 eg4_level1=1 eg4_level2=1 eg4_level3=1 eg4_level4=1 eg4_level5=1
<region>sample=../Sample/Wave1602.wav lokey=100 hikey=100 pitch_keycenter=62 tune=0 loop_mode=loop_continuous loop_start=9614 loop_end=13892 pan=0 eg2_cutoff=6688 eg2_sustain=4 eg2_time1=0 eg2_time2=0 eg2_time3=0 eg2_time4=0 eg2_time5=0 eg2_level1=0 eg2_level2=1 eg2_level3=1 eg2_level4=1 eg2_level5=1 eg2_cutoff_curvecc131=202 eg2_cutoff_oncc131=9766.6031746 eg3_amplitude=100 eg3_sustain=4 eg3_time1=0 eg3_time2=0 eg3_time3=0.0149529 eg3_time4=0.1049169 eg3_time5=0.2168475 eg3_level1=0 eg3_level2=1 eg3_level3=1 eg3_level4=0 eg3_level5=0 amplitude_cc16=100 ampeg_attack=0 ampeg_release=0.2168475 eg4_time1=0 eg4_time2=0 eg4_time3=0.0149529 eg4_time4=0.1049169 eg4_time5=0.2168475 eg4_level1=1 eg4_level2=1 eg4_level3=1 eg4_level4=1 eg4_level5=1
<region>sample=../Sample/Wave1602.wav lokey=101 hikey=101 pitch_keycenter=62 tune=0 loop_mode=loop_continuous loop_start=9614 loop_end=13892 pan=0 eg2_cutoff=6688 eg2_sustain=4 eg2_time1=0 eg2_time2=0 eg2_time3=0 eg2_time4=0 eg2_time5=0 eg2_level1=0 eg2_level2=1 eg2_level3=1 eg2_level4=1 eg2_level5=1 eg2_cutoff_curvecc131=202 eg2_cutoff_oncc131=9766.6031746 eg3_amplitude=100 eg3_sustain=4 eg3_time1=0 eg3_time2=0 eg3_time3=0.0141136 eg3_time4=0.0990283 eg3_time5=0.2046768 eg3_level1=0 eg3_level2=1 eg3_level3=1 eg3_level4=0 eg3_level5=0 amplitude_cc16=100 ampeg_attack=0 ampeg_release=0.2046768 eg4_time1=0 eg4_time2=0 eg4_time3=0.0141136 eg4_time4=0.0990283 eg4_time5=0.2046768 eg4_level1=1 eg4_level2=1 eg4_level3=1 eg4_level4=1 eg4_level5=1
<region>sample=../Sample/Wave1602.wav lokey=102 hikey=102 pitch_keycenter=62 tune=0 loop_mode=loop_continuous loop_start=9614 loop_end=13892 pan=0 eg2_cutoff=6688 eg2_sustain=4 eg2_time1=0 eg2_time2=0 eg2_time3=0 eg2_time4=0 eg2_time5=0 eg2_level1=0 eg2_level2=1 eg2_level3=1 eg2_level4=1 eg2_level5=1 eg2_cutoff_curvecc131=202 eg2_cutoff_oncc131=9766.6031746 eg3_amplitude=100 eg3_sustain=4 eg3_time1=0 eg3_time2=0 eg3_time3=0.0133215 eg3_time4=0.0934703 eg3_time5=0.1931892 eg3_level1=0 eg3_level2=1 eg3_level3=1 eg3_level4=0 eg3_level5=0 amplitude_cc16=100 ampeg_attack=0 ampeg_release=0.1931892 eg4_time1=0 eg4_time2=0 eg4_time3=0.0133215 eg4_time4=0.0934703 eg4_time5=0.1931892 eg4_level1=1 eg4_level2=1 eg4_level3=1 eg4_level4=1 eg4_level5=1
<region>sample=../Sample/Wave1602.wav lokey=103 hikey=103 pitch_keycenter=62 tune=0 loop_mode=loop_continuous loop_start=9614 loop_end=13892 pan=0 eg2_cutoff=6688 eg2_sustain=4 eg2_time1=0 eg2_time2=0 eg2_time3=0 eg2_time4=0 eg2_time5=0 eg2_level1=0 eg2_level2=1 eg2_level3=1 eg2_level4=1 eg2_level5=1 eg2_cutoff_curvecc131=202 eg2_cutoff_oncc131=9766.6031746 eg3_amplitude=100 eg3_sustain=4 eg3_time1=0 eg3_time2=0 eg3_time3=0.0125738 eg3_time4=0.0882242 eg3_time5=0.1823463 eg3_level1=0 eg3_level2=1 eg3_level3=1 eg3_level4=0 eg3_level5=0 amplitude_cc16=100 ampeg_attack=0 ampeg_release=0.1823463 eg4_time1=0 eg4_time2=0 eg4_time3=0.0125738 eg4_time4=0.0882242 eg4_time5=0.1823463 eg4_level1=1 eg4_level2=1 eg4_level3=1 eg4_level4=1 eg4_level5=1
<region>sample=../Sample/Wave1602.wav lokey=104 hikey=104 pitch_keycenter=62 tune=0 loop_mode=loop_continuous loop_start=9614 loop_end=13892 pan=0 eg2_cutoff=6688 eg2_sustain=4 eg2_time1=0 eg2_time2=0 eg2_time3=0 eg2_time4=0 eg2_time5=0 eg2_level1=0 eg2_level2=1 eg2_level3=1 eg2_level4=1 eg2_level5=1 eg2_cutoff_curvecc131=202 eg2_cutoff_oncc131=9766.6031746 eg3_amplitude=100 eg3_sustain=4 eg3_time1=0 eg3_time2=0 eg3_time3=0.0118681 eg3_time4=0.0832726 eg3_time5=0.172112 eg3_level1=0 eg3_level2=1 eg3_level3=1 eg3_level4=0 eg3_level5=0 amplitude_cc16=100 ampeg_attack=0 ampeg_release=0.172112 eg4_time1=0 eg4_time2=0 eg4_time3=0.0118681 eg4_time4=0.0832726 eg4_time5=0.172112 eg4_level1=1 eg4_level2=1 eg4_level3=1 eg4_level4=1 eg4_level5=1
<region>sample=../Sample/Wave1602.wav lokey=105 hikey=105 pitch_keycenter=62 tune=0 loop_mode=loop_continuous loop_start=9614 loop_end=13892 pan=0 eg2_cutoff=6688 eg2_sustain=4 eg2_time1=0 eg2_time2=0 eg2_time3=0 eg2_time4=0 eg2_time5=0 eg2_level1=0 eg2_level2=1 eg2_level3=1 eg2_level4=1 eg2_level5=1 eg2_cutoff_curvecc131=202 eg2_cutoff_oncc131=9766.6031746 eg3_amplitude=100 eg3_sustain=4 eg3_time1=0 eg3_time2=0 eg3_time3=0.011202 eg3_time4=0.0785989 eg3_time5=0.1624521 eg3_level1=0 eg3_level2=1 eg3_level3=1 eg3_level4=0 eg3_level5=0 amplitude_cc16=100 ampeg_attack=0 ampeg_release=0.1624521 eg4_time1=0 eg4_time2=0 eg4_time3=0.011202 eg4_time4=0.0785989 eg4_time5=0.1624521 eg4_level1=1 eg4_level2=1 eg4_level3=1 eg4_level4=1 eg4_level5=1
<region>sample=../Sample/Wave1602.wav lokey=106 hikey=106 pitch_keycenter=62 tune=0 loop_mode=loop_continuous loop_start=9614 loop_end=13892 pan=0 eg2_cutoff=6688 eg2_sustain=4 eg2_time1=0 eg2_time2=0 eg2_time3=0 eg2_time4=0 eg2_time5=0 eg2_level1=0 eg2_level2=1 eg2_level3=1 eg2_level4=1 eg2_level5=1 eg2_cutoff_curvecc131=202 eg2_cutoff_oncc131=9766.6031746 eg3_amplitude=100 eg3_sustain=4 eg3_time1=0 eg3_time2=0 eg3_time3=0.0105733 eg3_time4=0.0741874 eg3_time5=0.1533343 eg3_level1=0 eg3_level2=1 eg3_level3=1 eg3_level4=0 eg3_level5=0 amplitude_cc16=100 ampeg_attack=0 ampeg_release=0.1533343 eg4_time1=0 eg4_time2=0 eg4_time3=0.0105733 eg4_time4=0.0741874 eg4_time5=0.1533343 eg4_level1=1 eg4_level2=1 eg4_level3=1 eg4_level4=1 eg4_level5=1
<region>sample=../Sample/Wave1602.wav lokey=107 hikey=107 pitch_keycenter=62 tune=0 loop_mode=loop_continuous loop_start=9614 loop_end=13892 pan=0 eg2_cutoff=6688 eg2_sustain=4 eg2_time1=0 eg2_time2=0 eg2_time3=0 eg2_time4=0 eg2_time5=0 eg2_level1=0 eg2_level2=1 eg2_level3=1 eg2_level4=1 eg2_level5=1 eg2_cutoff_curvecc131=202 eg2_cutoff_oncc131=9766.6031746 eg3_amplitude=100 eg3_sustain=4 eg3_time1=0 eg3_time2=0 eg3_time3=0.0099799 eg3_time4=0.0700236 eg3_time5=0.1447283 eg3_level1=0 eg3_level2=1 eg3_level3=1 eg3_level4=0 eg3_level5=0 amplitude_cc16=100 ampeg_attack=0 ampeg_release=0.1447283 eg4_time1=0 eg4_time2=0 eg4_time3=0.0099799 eg4_time4=0.0700236 eg4_time5=0.1447283 eg4_level1=1 eg4_level2=1 eg4_level3=1 eg4_level4=1 eg4_level5=1
<region>sample=../Sample/Wave1602.wav lokey=108 hikey=108 pitch_keycenter=62 tune=0 loop_mode=loop_continuous loop_start=9614 loop_end=13892 pan=0 eg2_cutoff=6688 eg2_sustain=4 eg2_time1=0 eg2_time2=0 eg2_time3=0 eg2_time4=0 eg2_time5=0 eg2_level1=0 eg2_level2=1 eg2_level3=1 eg2_level4=1 eg2_level5=1 eg2_cutoff_curvecc131=202 eg2_cutoff_oncc131=9766.6031746 eg3_amplitude=100 eg3_sustain=4 eg3_time1=0 eg3_time2=0 eg3_time3=0.0094197 eg3_time4=0.0660935 eg3_time5=0.1366054 eg3_level1=0 eg3_level2=1 eg3_level3=1 eg3_level4=0 eg3_level5=0 amplitude_cc16=100 ampeg_attack=0 ampeg_release=0.1366054 eg4_time1=0 eg4_time2=0 eg4_time3=0.0094197 eg4_time4=0.0660935 eg4_time5=0.1366054 eg4_level1=1 eg4_level2=1 eg4_level3=1 eg4_level4=1 eg4_level5=1
<region>sample=../Sample/Wave1602.wav lokey=109 hikey=109 pitch_keycenter=62 tune=0 loop_mode=loop_continuous loop_start=9614 loop_end=13892 pan=0 eg2_cutoff=6688 eg2_sustain=4 eg2_time1=0 eg2_time2=0 eg2_time3=0 eg2_time4=0 eg2_time5=0 eg2_level1=0 eg2_level2=1 eg2_level3=1 eg2_level4=1 eg2_level5=1 eg2_cutoff_curvecc131=202 eg2_cutoff_oncc131=9766.6031746 eg3_amplitude=100 eg3_sustain=4 eg3_time1=0 eg3_time2=0 eg3_time3=0.008891 eg3_time4=0.062384 eg3_time5=0.1289383 eg3_level1=0 eg3_level2=1 eg3_level3=1 eg3_level4=0 eg3_level5=0 amplitude_cc16=100 ampeg_attack=0 ampeg_release=0.1289383 eg4_time1=0 eg4_time2=0 eg4_time3=0.008891 eg4_time4=0.062384 eg4_time5=0.1289383 eg4_level1=1 eg4_level2=1 eg4_level3=1 eg4_level4=1 eg4_level5=1
<region>sample=../Sample/Wave1602.wav lokey=110 hikey=110 pitch_keycenter=62 tune=0 loop_mode=loop_continuous loop_start=9614 loop_end=13892 pan=0 eg2_cutoff=6688 eg2_sustain=4 eg2_time1=0 eg2_time2=0 eg2_time3=0 eg2_time4=0 eg2_time5=0 eg2_level1=0 eg2_level2=1 eg2_level3=1 eg2_level4=1 eg2_level5=1 eg2_cutoff_curvecc131=202 eg2_cutoff_oncc131=9766.6031746 eg3_amplitude=100 eg3_sustain=4 eg3_time1=0 eg3_time2=0 eg3_time3=0.008392 eg3_time4=0.0588826 eg3_time5=0.1217015 eg3_level1=0 eg3_level2=1 eg3_level3=1 eg3_level4=0 eg3_level5=0 amplitude_cc16=100 ampeg_attack=0 ampeg_release=0.1217015 eg4_time1=0 eg4_time2=0 eg4_time3=0.008392 eg4_time4=0.0588826 eg4_time5=0.1217015 eg4_level1=1 eg4_level2=1 eg4_level3=1 eg4_level4=1 eg4_level5=1
<region>sample=../Sample/Wave1602.wav lokey=111 hikey=111 pitch_keycenter=62 tune=0 loop_mode=loop_continuous loop_start=9614 loop_end=13892 pan=0 eg2_cutoff=6688 eg2_sustain=4 eg2_time1=0 eg2_time2=0 eg2_time3=0 eg2_time4=0 eg2_time5=0 eg2_level1=0 eg2_level2=1 eg2_level3=1 eg2_level4=1 eg2_level5=1 eg2_cutoff_curvecc131=202 eg2_cutoff_oncc131=9766.6031746 eg3_amplitude=100 eg3_sustain=4 eg3_time1=0 eg3_time2=0 eg3_time3=0.007921 eg3_time4=0.0555778 eg3_time5=0.114871 eg3_level1=0 eg3_level2=1 eg3_level3=1 eg3_level4=0 eg3_level5=0 amplitude_cc16=100 ampeg_attack=0 ampeg_release=0.114871 eg4_time1=0 eg4_time2=0 eg4_time3=0.007921 eg4_time4=0.0555778 eg4_time5=0.114871 eg4_level1=1 eg4_level2=1 eg4_level3=1 eg4_level4=1 eg4_level5=1
<region>sample=../Sample/Wave1602.wav lokey=112 hikey=112 pitch_keycenter=62 tune=0 loop_mode=loop_continuous loop_start=9614 loop_end=13892 pan=0 eg2_cutoff=6688 eg2_sustain=4 eg2_time1=0 eg2_time2=0 eg2_time3=0 eg2_time4=0 eg2_time5=0 eg2_level1=0 eg2_level2=1 eg2_level3=1 eg2_level4=1 eg2_level5=1 eg2_cutoff_curvecc131=202 eg2_cutoff_oncc131=9766.6031746 eg3_amplitude=100 eg3_sustain=4 eg3_time1=0 eg3_time2=0 eg3_time3=0.0074764 eg3_time4=0.0524584 eg3_time5=0.1084237 eg3_level1=0 eg3_level2=1 eg3_level3=1 eg3_level4=0 eg3_level5=0 amplitude_cc16=100 ampeg_attack=0 ampeg_release=0.1084237 eg4_time1=0 eg4_time2=0 eg4_time3=0.0074764 eg4_time4=0.0524584 eg4_time5=0.1084237 eg4_level1=1 eg4_level2=1 eg4_level3=1 eg4_level4=1 eg4_level5=1
<region>sample=../Sample/Wave1602.wav lokey=113 hikey=113 pitch_keycenter=62 tune=0 loop_mode=loop_continuous loop_start=9614 loop_end=13892 pan=0 eg2_cutoff=6688 eg2_sustain=4 eg2_time1=0 eg2_time2=0 eg2_time3=0 eg2_time4=0 eg2_time5=0 eg2_level1=0 eg2_level2=1 eg2_level3=1 eg2_level4=1 eg2_level5=1 eg2_cutoff_curvecc131=202 eg2_cutoff_oncc131=9766.6031746 eg3_amplitude=100 eg3_sustain=4 eg3_time1=0 eg3_time2=0 eg3_time3=0.0070568 eg3_time4=0.0495142 eg3_time5=0.1023384 eg3_level1=0 eg3_level2=1 eg3_level3=1 eg3_level4=0 eg3_level5=0 amplitude_cc16=100 ampeg_attack=0 ampeg_release=0.1023384 eg4_time1=0 eg4_time2=0 eg4_time3=0.0070568 eg4_time4=0.0495142 eg4_time5=0.1023384 eg4_level1=1 eg4_level2=1 eg4_level3=1 eg4_level4=1 eg4_level5=1
<region>sample=../Sample/Wave1602.wav lokey=114 hikey=114 pitch_keycenter=62 tune=0 loop_mode=loop_continuous loop_start=9614 loop_end=13892 pan=0 eg2_cutoff=6688 eg2_sustain=4 eg2_time1=0 eg2_time2=0 eg2_time3=0 eg2_time4=0 eg2_time5=0 eg2_level1=0 eg2_level2=1 eg2_level3=1 eg2_level4=1 eg2_level5=1 eg2_cutoff_curvecc131=202 eg2_cutoff_oncc131=9766.6031746 eg3_amplitude=100 eg3_sustain=4 eg3_time1=0 eg3_time2=0 eg3_time3=0.0066608 eg3_time4=0.0467352 eg3_time5=0.0965946 eg3_level1=0 eg3_level2=1 eg3_level3=1 eg3_level4=0 eg3_level5=0 amplitude_cc16=100 ampeg_attack=0 ampeg_release=0.0965946 eg4_time1=0 eg4_time2=0 eg4_time3=0.0066608 eg4_time4=0.0467352 eg4_time5=0.0965946 eg4_level1=1 eg4_level2=1 eg4_level3=1 eg4_level4=1 eg4_level5=1
<region>sample=../Sample/Wave1602.wav lokey=115 hikey=115 pitch_keycenter=62 tune=0 loop_mode=loop_continuous loop_start=9614 loop_end=13892 pan=0 eg2_cutoff=6688 eg2_sustain=4 eg2_time1=0 eg2_time2=0 eg2_time3=0 eg2_time4=0 eg2_time5=0 eg2_level1=0 eg2_level2=1 eg2_level3=1 eg2_level4=1 eg2_level5=1 eg2_cutoff_curvecc131=202 eg2_cutoff_oncc131=9766.6031746 eg3_amplitude=100 eg3_sustain=4 eg3_time1=0 eg3_time2=0 eg3_time3=0.0062869 eg3_time4=0.0441121 eg3_time5=0.0911731 eg3_level1=0 eg3_level2=1 eg3_level3=1 eg3_level4=0 eg3_level5=0 amplitude_cc16=100 ampeg_attack=0 ampeg_release=0.0911731 eg4_time1=0 eg4_time2=0 eg4_time3=0.0062869 eg4_time4=0.0441121 eg4_time5=0.0911731 eg4_level1=1 eg4_level2=1 eg4_level3=1 eg4_level4=1 eg4_level5=1
<region>sample=../Sample/Wave1602.wav lokey=116 hikey=116 pitch_keycenter=62 tune=0 loop_mode=loop_continuous loop_start=9614 loop_end=13892 pan=0 eg2_cutoff=6688 eg2_sustain=4 eg2_time1=0 eg2_time2=0 eg2_time3=0 eg2_time4=0 eg2_time5=0 eg2_level1=0 eg2_level2=1 eg2_level3=1 eg2_level4=1 eg2_level5=1 eg2_cutoff_curvecc131=202 eg2_cutoff_oncc131=9766.6031746 eg3_amplitude=100 eg3_sustain=4 eg3_time1=0 eg3_time2=0 eg3_time3=0.0059341 eg3_time4=0.0416363 eg3_time5=0.086056 eg3_level1=0 eg3_level2=1 eg3_level3=1 eg3_level4=0 eg3_level5=0 amplitude_cc16=100 ampeg_attack=0 ampeg_release=0.086056 eg4_time1=0 eg4_time2=0 eg4_time3=0.0059341 eg4_time4=0.0416363 eg4_time5=0.086056 eg4_level1=1 eg4_level2=1 eg4_level3=1 eg4_level4=1 eg4_level5=1
<region>sample=../Sample/Wave1602.wav lokey=117 hikey=117 pitch_keycenter=62 tune=0 loop_mode=loop_continuous loop_start=9614 loop_end=13892 pan=0 eg2_cutoff=6688 eg2_sustain=4 eg2_time1=0 eg2_time2=0 eg2_time3=0 eg2_time4=0 eg2_time5=0 eg2_level1=0 eg2_level2=1 eg2_level3=1 eg2_level4=1 eg2_level5=1 eg2_cutoff_curvecc131=202 eg2_cutoff_oncc131=9766.6031746 eg3_amplitude=100 eg3_sustain=4 eg3_time1=0 eg3_time2=0 eg3_time3=0.005601 eg3_time4=0.0392994 eg3_time5=0.081226 eg3_level1=0 eg3_level2=1 eg3_level3=1 eg3_level4=0 eg3_level5=0 amplitude_cc16=100 ampeg_attack=0 ampeg_release=0.081226 eg4_time1=0 eg4_time2=0 eg4_time3=0.005601 eg4_time4=0.0392994 eg4_time5=0.081226 eg4_level1=1 eg4_level2=1 eg4_level3=1 eg4_level4=1 eg4_level5=1
<region>sample=../Sample/Wave1602.wav lokey=118 hikey=118 pitch_keycenter=62 tune=0 loop_mode=loop_continuous loop_start=9614 loop_end=13892 pan=0 eg2_cutoff=6688 eg2_sustain=4 eg2_time1=0 eg2_time2=0 eg2_time3=0 eg2_time4=0 eg2_time5=0 eg2_level1=0 eg2_level2=1 eg2_level3=1 eg2_level4=1 eg2_level5=1 eg2_cutoff_curvecc131=202 eg2_cutoff_oncc131=9766.6031746 eg3_amplitude=100 eg3_sustain=4 eg3_time1=0 eg3_time2=0 eg3_time3=0.0052866 eg3_time4=0.0370937 eg3_time5=0.0766672 eg3_level1=0 eg3_level2=1 eg3_level3=1 eg3_level4=0 eg3_level5=0 amplitude_cc16=100 ampeg_attack=0 ampeg_release=0.0766672 eg4_time1=0 eg4_time2=0 eg4_time3=0.0052866 eg4_time4=0.0370937 eg4_time5=0.0766672 eg4_level1=1 eg4_level2=1 eg4_level3=1 eg4_level4=1 eg4_level5=1
<region>sample=../Sample/Wave1602.wav lokey=119 hikey=119 pitch_keycenter=62 tune=0 loop_mode=loop_continuous loop_start=9614 loop_end=13892 pan=0 eg2_cutoff=6688 eg2_sustain=4 eg2_time1=0 eg2_time2=0 eg2_time3=0 eg2_time4=0 eg2_time5=0 eg2_level1=0 eg2_level2=1 eg2_level3=1 eg2_level4=1 eg2_level5=1 eg2_cutoff_curvecc131=202 eg2_cutoff_oncc131=9766.6031746 eg3_amplitude=100 eg3_sustain=4 eg3_time1=0 eg3_time2=0 eg3_time3=0.0049899 eg3_time4=0.0350118 eg3_time5=0.0723642 eg3_level1=0 eg3_level2=1 eg3_level3=1 eg3_level4=0 eg3_level5=0 amplitude_cc16=100 ampeg_attack=0 ampeg_release=0.0723642 eg4_time1=0 eg4_time2=0 eg4_time3=0.0049899 eg4_time4=0.0350118 eg4_time5=0.0723642 eg4_level1=1 eg4_level2=1 eg4_level3=1 eg4_level4=1 eg4_level5=1
<region>sample=../Sample/Wave1602.wav lokey=120 hikey=120 pitch_keycenter=62 tune=0 loop_mode=loop_continuous loop_start=9614 loop_end=13892 pan=0 eg2_cutoff=6688 eg2_sustain=4 eg2_time1=0 eg2_time2=0 eg2_time3=0 eg2_time4=0 eg2_time5=0 eg2_level1=0 eg2_level2=1 eg2_level3=1 eg2_level4=1 eg2_level5=1 eg2_cutoff_curvecc131=202 eg2_cutoff_oncc131=9766.6031746 eg3_amplitude=100 eg3_sustain=4 eg3_time1=0 eg3_time2=0 eg3_time3=0.0047099 eg3_time4=0.0330467 eg3_time5=0.0683027 eg3_level1=0 eg3_level2=1 eg3_level3=1 eg3_level4=0 eg3_level5=0 amplitude_cc16=100 ampeg_attack=0 ampeg_release=0.0683027 eg4_time1=0 eg4_time2=0 eg4_time3=0.0047099 eg4_time4=0.0330467 eg4_time5=0.0683027 eg4_level1=1 eg4_level2=1 eg4_level3=1 eg4_level4=1 eg4_level5=1
<region>sample=../Sample/Wave1602.wav lokey=121 hikey=121 pitch_keycenter=62 tune=0 loop_mode=loop_continuous loop_start=9614 loop_end=13892 pan=0 eg2_cutoff=6688 eg2_sustain=4 eg2_time1=0 eg2_time2=0 eg2_time3=0 eg2_time4=0 eg2_time5=0 eg2_level1=0 eg2_level2=1 eg2_level3=1 eg2_level4=1 eg2_level5=1 eg2_cutoff_curvecc131=202 eg2_cutoff_oncc131=9766.6031746 eg3_amplitude=100 eg3_sustain=4 eg3_time1=0 eg3_time2=0 eg3_time3=0.0044455 eg3_time4=0.031192 eg3_time5=0.0644691 eg3_level1=0 eg3_level2=1 eg3_level3=1 eg3_level4=0 eg3_level5=0 amplitude_cc16=100 ampeg_attack=0 ampeg_release=0.0644691 eg4_time1=0 eg4_time2=0 eg4_time3=0.0044455 eg4_time4=0.031192 eg4_time5=0.0644691 eg4_level1=1 eg4_level2=1 eg4_level3=1 eg4_level4=1 eg4_level5=1
<region>sample=../Sample/Wave1602.wav lokey=122 hikey=122 pitch_keycenter=62 tune=0 loop_mode=loop_continuous loop_start=9614 loop_end=13892 pan=0 eg2_cutoff=6688 eg2_sustain=4 eg2_time1=0 eg2_time2=0 eg2_time3=0 eg2_time4=0 eg2_time5=0 eg2_level1=0 eg2_level2=1 eg2_level3=1 eg2_level4=1 eg2_level5=1 eg2_cutoff_curvecc131=202 eg2_cutoff_oncc131=9766.6031746 eg3_amplitude=100 eg3_sustain=4 eg3_time1=0 eg3_time2=0 eg3_time3=0.004196 eg3_time4=0.0294413 eg3_time5=0.0608508 eg3_level1=0 eg3_level2=1 eg3_level3=1 eg3_level4=0 eg3_level5=0 amplitude_cc16=100 ampeg_attack=0 ampeg_release=0.0608508 eg4_time1=0 eg4_time2=0 eg4_time3=0.004196 eg4_time4=0.0294413 eg4_time5=0.0608508 eg4_level1=1 eg4_level2=1 eg4_level3=1 eg4_level4=1 eg4_level5=1
<region>sample=../Sample/Wave1602.wav lokey=123 hikey=123 pitch_keycenter=62 tune=0 loop_mode=loop_continuous loop_start=9614 loop_end=13892 pan=0 eg2_cutoff=6688 eg2_sustain=4 eg2_time1=0 eg2_time2=0 eg2_time3=0 eg2_time4=0 eg2_time5=0 eg2_level1=0 eg2_level2=1 eg2_level3=1 eg2_level4=1 eg2_level5=1 eg2_cutoff_curvecc131=202 eg2_cutoff_oncc131=9766.6031746 eg3_amplitude=100 eg3_sustain=4 eg3_time1=0 eg3_time2=0 eg3_time3=0.0039605 eg3_time4=0.0277889 eg3_time5=0.0574355 eg3_level1=0 eg3_level2=1 eg3_level3=1 eg3_level4=0 eg3_level5=0 amplitude_cc16=100 ampeg_attack=0 ampeg_release=0.0574355 eg4_time1=0 eg4_time2=0 eg4_time3=0.0039605 eg4_time4=0.0277889 eg4_time5=0.0574355 eg4_level1=1 eg4_level2=1 eg4_level3=1 eg4_level4=1 eg4_level5=1
<region>sample=../Sample/Wave1602.wav lokey=124 hikey=124 pitch_keycenter=62 tune=0 loop_mode=loop_continuous loop_start=9614 loop_end=13892 pan=0 eg2_cutoff=6688 eg2_sustain=4 eg2_time1=0 eg2_time2=0 eg2_time3=0 eg2_time4=0 eg2_time5=0 eg2_level1=0 eg2_level2=1 eg2_level3=1 eg2_level4=1 eg2_level5=1 eg2_cutoff_curvecc131=202 eg2_cutoff_oncc131=9766.6031746 eg3_amplitude=100 eg3_sustain=4 eg3_time1=0 eg3_time2=0 eg3_time3=0.0037382 eg3_time4=0.0262292 eg3_time5=0.0542119 eg3_level1=0 eg3_level2=1 eg3_level3=1 eg3_level4=0 eg3_level5=0 amplitude_cc16=100 ampeg_attack=0 ampeg_release=0.0542119 eg4_time1=0 eg4_time2=0 eg4_time3=0.0037382 eg4_time4=0.0262292 eg4_time5=0.0542119 eg4_level1=1 eg4_level2=1 eg4_level3=1 eg4_level4=1 eg4_level5=1
<region>sample=../Sample/Wave1602.wav lokey=125 hikey=125 pitch_keycenter=62 tune=0 loop_mode=loop_continuous loop_start=9614 loop_end=13892 pan=0 eg2_cutoff=6688 eg2_sustain=4 eg2_time1=0 eg2_time2=0 eg2_time3=0 eg2_time4=0 eg2_time5=0 eg2_level1=0 eg2_level2=1 eg2_level3=1 eg2_level4=1 eg2_level5=1 eg2_cutoff_curvecc131=202 eg2_cutoff_oncc131=9766.6031746 eg3_amplitude=100 eg3_sustain=4 eg3_time1=0 eg3_time2=0 eg3_time3=0.0035284 eg3_time4=0.0247571 eg3_time5=0.0511692 eg3_level1=0 eg3_level2=1 eg3_level3=1 eg3_level4=0 eg3_level5=0 amplitude_cc16=100 ampeg_attack=0 ampeg_release=0.0511692 eg4_time1=0 eg4_time2=0 eg4_time3=0.0035284 eg4_time4=0.0247571 eg4_time5=0.0511692 eg4_level1=1 eg4_level2=1 eg4_level3=1 eg4_level4=1 eg4_level5=1
<region>sample=../Sample/Wave1602.wav lokey=126 hikey=126 pitch_keycenter=62 tune=0 loop_mode=loop_continuous loop_start=9614 loop_end=13892 pan=0 eg2_cutoff=6688 eg2_sustain=4 eg2_time1=0 eg2_time2=0 eg2_time3=0 eg2_time4=0 eg2_time5=0 eg2_level1=0 eg2_level2=1 eg2_level3=1 eg2_level4=1 eg2_level5=1 eg2_cutoff_curvecc131=202 eg2_cutoff_oncc131=9766.6031746 eg3_amplitude=100 eg3_sustain=4 eg3_time1=0 eg3_time2=0 eg3_time3=0.0033304 eg3_time4=0.0233676 eg3_time5=0.0482973 eg3_level1=0 eg3_level2=1 eg3_level3=1 eg3_level4=0 eg3_level5=0 amplitude_cc16=100 ampeg_attack=0 ampeg_release=0.0482973 eg4_time1=0 eg4_time2=0 eg4_time3=0.0033304 eg4_time4=0.0233676 eg4_time5=0.0482973 eg4_level1=1 eg4_level2=1 eg4_level3=1 eg4_level4=1 eg4_level5=1
<region>sample=../Sample/Wave1602.wav lokey=127 hikey=127 pitch_keycenter=62 tune=0 loop_mode=loop_continuous loop_start=9614 loop_end=13892 pan=0 eg2_cutoff=6688 eg2_sustain=4 eg2_time1=0 eg2_time2=0 eg2_time3=0 eg2_time4=0 eg2_time5=0 eg2_level1=0 eg2_level2=1 eg2_level3=1 eg2_level4=1 eg2_level5=1 eg2_cutoff_curvecc131=202 eg2_cutoff_oncc131=9766.6031746 eg3_amplitude=100 eg3_sustain=4 eg3_time1=0 eg3_time2=0 eg3_time3=0.0031435 eg3_time4=0.0220561 eg3_time5=0.0455866 eg3_level1=0 eg3_level2=1 eg3_level3=1 eg3_level4=0 eg3_level5=0 amplitude_cc16=100 ampeg_attack=0 ampeg_release=0.0455866 eg4_time1=0 eg4_time2=0 eg4_time3=0.0031435 eg4_time4=0.0220561 eg4_time5=0.0455866 eg4_level1=1 eg4_level2=1 eg4_level3=1 eg4_level4=1 eg4_level5=1
<curve>curve_index=133 v000=-0.4724409 v127=0.5275591
<curve>curve_index=201 v000=-1 v127=0
<curve>curve_index=202 v000=-1 v001=-0.9997494 v009=-0.991513 v017=-0.9762171 v025=-0.9551519 v033=-0.92858 v041=-0.8964065 v049=-0.8583211 v057=-0.8138437 v065=-0.7623383 v073=-0.7030102 v081=-0.6348936 v089=-0.5568321 v097=-0.467451 v105=-0.3651233 v113=-0.2479268 v121=-0.1135922 v127=0
<curve>curve_index=203 v000=-1 v001=-1 v009=-0.9999675 v017=-0.9996583 v025=-0.9985752 v033=-0.9960114 v041=-0.9910577 v049=-0.9825829 v057=-0.9691807 v065=-0.9490722 v073=-0.9199401 v081=-0.8786619 v089=-0.82088 v097=-0.740303 v105=-0.6275479 v113=-0.4681713 v121=-0.2392198 v127=0
<curve>curve_index=204 v000=-1 v001=-0.9323558 v009=-0.741349 v017=-0.6263141 v025=-0.5373342 v033=-0.4635977 v041=-0.4002693 v049=-0.3446331 v057=-0.2949675 v065=-0.2500953 v073=-0.2091682 v081=-0.1715511 v089=-0.1367543 v097=-0.1043909 v105=-0.0741496 v113=-0.0457759 v121=-0.0190586 v127=0
<curve>curve_index=205 v000=-1 v001=-0.6880006 v009=-0.4427647 v017=-0.3466618 v025=-0.2834429 v033=-0.2361238 v041=-0.1983568 v049=-0.1670059 v057=-0.1402727 v065=-0.1170246 v073=-0.0964998 v081=-0.0781602 v089=-0.061612 v097=-0.0465575 v105=-0.0327669 v113=-0.0200585 v121=-0.0082866 v127=0
<curve>curve_index=206 v000=-1 v001=-0.9992164 v009=-0.9919382 v017=-0.9822354 v025=-0.9686809 v033=-0.9484937 v041=-0.9155493 v049=-0.8540328 v057=-0.7175582 v065=-0.4426581 v073=-0.2171001 v081=-0.1176907 v089=-0.0699434 v097=-0.0428826 v105=-0.0256514 v113=-0.0137704 v121=-0.0051009 v127=0
<curve>curve_index=207 v000=-1 v001=-0.9416361 v009=-0.7228567 v017=-0.6420575 v025=-0.5979344 v033=-0.568666 v041=-0.5466723 v049=-0.5285483 v057=-0.5124439 v065=-0.497147 v073=-0.4816686 v081=-0.4649713 v089=-0.4456677 v097=-0.4214805 v105=-0.3879226 v113=-0.3341321 v121=-0.2242261 v127=0
